<svg height="512pt" viewBox="-17 0 512 512.16321" width="512pt" xmlns="http://www.w3.org/2000/svg"><path d="m469.414062 298.828125c0 113.070313-103.167968 204.800781-230.398437 204.800781-4.265625 0-8.535156-.085937-12.800781-.339844-121.257813-5.886718-217.601563-95.234374-217.601563-204.460937.003907-21.394531 3.757813-42.621094 11.09375-62.71875 3.539063-9.609375 5.746094-19.660156 6.570313-29.867187 7.863281-106.511719 93.324218-190.769532 199.9375-197.117188 4.265625-.34375 8.535156-.429688 12.800781-.429688 111.660156.003907 204.429687 86.109376 212.734375 197.460938.816406 10.183594 3.027344 20.203125 6.570312 29.78125 7.332032 20.160156 11.085938 41.441406 11.09375 62.890625zm0 0" fill="#ad1457"/><path d="m443.816406 298.828125c0 109.226563-96.34375 198.574219-217.601562 204.460937-121.257813-5.886718-217.601563-95.234374-217.601563-204.460937.003907-21.394531 3.757813-42.621094 11.09375-62.71875 3.539063-9.609375 5.746094-19.660156 6.570313-29.867187 7.863281-106.511719 93.324218-190.769532 199.9375-197.117188 106.585937 6.339844 192.039062 90.550781 199.9375 197.03125.8125 10.183594 3.023437 20.203125 6.570312 29.78125 7.328125 20.160156 11.082032 41.441406 11.09375 62.890625zm0 0" fill="#e91e63"/><path d="m392.613281 234.828125c.199219 18.171875-3.164062 36.203125-9.898437 53.078125-7.105469-3.589844-14.53125-6.503906-22.183594-8.703125-17.300781-5.195313-35.429688-7.046875-53.421875-5.460937-6.429687.597656-12.816406 1.621093-19.113281 3.070312-.339844-1.109375-.597656-2.21875-.9375-3.410156-3.410156-12.582032-5.214844-25.539063-5.378906-38.574219 0-4.179687-.425782-9.386719-.082032-13.566406 28.234375-2.386719 55.738282-10.242188 80.980469-23.125 7.414063-3.742188 14.59375-7.933594 21.503906-12.542969 5.683594 15.789062 8.574219 32.453125 8.53125 49.234375zm0 0" fill="#cfd8dc"/><path d="m367.269531 234.828125c.121094 15.058594-2.15625 30.035156-6.738281 44.375-17.300781-5.195313-35.429688-7.046875-53.421875-5.460937-6.667969-.53125-13.367187-.644532-20.050781-.339844-3.410156-12.582032-5.214844-25.539063-5.378906-38.574219 0-4.179687-.425782-9.386719-.082032-13.566406 28.234375-2.386719 55.738282-10.242188 80.980469-23.125 3.128906 11.980469 4.707031 24.3125 4.691406 36.691406zm0 0" fill="#fff"/><path d="m204.882812 234.828125c-.214843 14.214844-2.339843 28.335937-6.316406 41.984375-31.910156-7.316406-65.367187-3.398438-94.71875 11.09375-6.734375-16.875-10.097656-34.90625-9.898437-53.078125-.039063-16.78125 2.847656-33.445313 8.53125-49.234375 30.636719 20.285156 65.875 32.550781 102.488281 35.667969.339844 4.179687-.085938 9.386719-.085938 13.566406zm0 0" fill="#fff"/><path d="m177.660156 217.25c1.078125 2.894531 1.625 5.957031 1.621094 9.046875 1.007812 10.554687-6.550781 20-17.066406 21.332031-10.515625-1.332031-18.074219-10.777344-17.066406-21.332031-.140626-6.089844 2.09375-11.996094 6.230468-16.46875zm0 0" fill="#8bc34a"/><path d="m358.480469 204.964844c5.6875 5.613281 8.777343 13.34375 8.535156 21.332031 1.003906 10.554687-6.550781 20-17.066406 21.332031-10.519531-1.332031-18.074219-10.777344-17.066407-21.332031-.140624-6.089844 2.09375-11.996094 6.226563-16.46875zm0 0" fill="#8bc34a"/><path d="m221.949219 213.496094c-44.128907-.265625-87.03125-14.515625-122.546875-40.703125-3.628906-3.015625-9.011719-2.519531-12.023438 1.109375-3.015625 3.625-2.519531 9.007812 1.109375 12.023437.304688.246094 1.707031 1.363281 3.882813 2.984375-4.65625 14.859375-7.003906 30.347656-6.957032 45.917969-.074218 16.644531 2.644532 33.179687 8.039063 48.921875-4.265625 2.417969-8.59375 5.121094-12.902344 8.074219-2.613281 1.691406-4.101562 4.675781-3.875 7.78125.226563 3.105469 2.125 5.84375 4.957031 7.140625 2.832032 1.296875 6.148438.949218 8.644532-.910156 34.902344-24.648438 79.5625-30.910157 119.894531-16.8125 4.363281 1.796874 9.355469-.28125 11.148437-4.644532 1.796876-4.363281-.285156-9.351562-4.644531-11.148437-.503906-.207031-3.132812-1.246094-7.382812-2.5625 2.757812-11.746094 4.140625-23.773438 4.121093-35.839844 0-1.636719-.066406-3.0625-.101562-4.554687 2.867188.117187 5.691406.289062 8.636719.289062 4.710937 0 8.53125-3.820312 8.53125-8.53125 0-4.714844-3.820313-8.535156-8.53125-8.535156zm-51.199219 12.800781c0 7.542969-4.5 12.800781-8.535156 12.800781s-8.535156-5.257812-8.535156-12.800781c-.003907-2.140625.390624-4.261719 1.164062-6.253906 5.007812 1.585937 10.238281 3.035156 15.734375 4.359375.089844.628906.148437 1.261718.171875 1.894531zm25.597656 8.53125c.007813 10.789063-1.230468 21.539063-3.6875 32.042969-28.25-4.941406-57.324218-1.683594-83.777344 9.386718-4.3125-13.382812-6.472656-27.367187-6.402343-41.429687-.039063-12.207031 1.539062-24.367187 4.695312-36.164063 10.117188 6.011719 20.691407 11.226563 31.625 15.59375-1.445312 3.847657-2.1875 7.925782-2.1875 12.039063-1.066406 15.28125 10.339844 28.582031 25.601563 29.867187 14.691406-1.1875 25.882812-13.667968 25.472656-28.398437 2.808594.441406 5.621094.851563 8.53125 1.210937.078125 1.835938.128906 3.726563.128906 5.851563zm0 0"/><path d="m393.109375 283.75c5.398437-15.742188 8.113281-32.277344 8.039063-48.921875.046874-15.570313-2.296876-31.058594-6.953126-45.917969 2.199219-1.621094 3.574219-2.738281 3.882813-2.984375 2.34375-1.953125 3.46875-5.003906 2.949219-8.011719-.515625-3.003906-2.597656-5.507812-5.460938-6.5625-2.859375-1.054687-6.066406-.5-8.414062 1.449219-13.402344 10.179688-28.121094 18.5-43.75 24.746094-1.234375.371094-2.4375.847656-3.589844 1.417969-23.933594 9.519531-49.441406 14.449218-75.199219 14.53125-4.710937 0-8.53125 3.820312-8.53125 8.535156 0 4.710938 3.820313 8.53125 8.53125 8.53125 2.945313 0 5.769531-.171875 8.636719-.289062 0 1.492187-.101562 2.917968-.101562 4.554687-.019532 12.066406 1.363281 24.09375 4.121093 35.839844-4.265625 1.28125-6.878906 2.332031-7.382812 2.5625-4.269531 1.851562-6.265625 6.785156-4.488281 11.089843 1.777343 4.300782 6.675781 6.382813 11.007812 4.679688 40.359375-13.804688 84.882812-7.550781 119.878906 16.835938 2.5 1.859374 5.8125 2.207031 8.644532.910156 2.832031-1.296875 4.730468-4.035156 4.957031-7.140625.226562-3.105469-1.257813-6.089844-3.875-7.78125-4.308594-2.996094-8.609375-5.65625-12.902344-8.074219zm-35.703125-63.503906c.714844 1.9375 1.082031 3.984375 1.074219 6.050781.078125 3.285156-.871094 6.515625-2.710938 9.242187-.128906.136719-.257812.28125-.378906.433594-.289063.332032-.613281.699219-.722656.855469-4.121094 4.265625-9.78125 1.917969-12.179688-4.464844-.714843-1.941406-1.082031-3.996093-1.074219-6.066406-.046874-3.3125.921876-6.558594 2.773438-9.300781.136719-.15625.273438-.316406.402344-.480469l.050781-.058594.589844-.671875c.394531-.394531.828125-.742187 1.296875-1.042968.851562-.332032 1.707031-.65625 2.558594-1 3.269531-.46875 6.621093 1.972656 8.320312 6.503906zm-63.503906 46.625c-2.453125-10.503906-3.6875-21.253906-3.6875-32.042969 0-2.125.050781-4.015625.136718-5.851563 11.605469-1.371093 23.082032-3.65625 34.328126-6.828124-.792969 5.472656-.160157 11.058593 1.835937 16.214843 3.316406 10.253907 12.667969 17.355469 23.433594 17.800781 6.386719-.066406 12.476562-2.726562 16.871093-7.363281.527344-.53125 1.054688-1.128906 1.515626-1.707031.164062-.171875.324218-.367188.480468-.554688 4.460938-5.796874 6.835938-12.929687 6.730469-20.242187.011719-4.117187-.722656-8.203125-2.167969-12.058594-1.265625-3.355469-3.125-6.457031-5.484375-9.15625 4.265625-2.226562 8.070313-4.367187 11.492188-6.417969 3.160156 11.796876 4.738281 23.957032 4.695312 36.164063.074219 14.074219-2.085937 28.070313-6.402343 41.464844-26.449219-11.089844-55.523438-14.359375-83.777344-9.421875zm0 0"/><path d="m264.613281 367.097656c-22.570312 0-32.621093 28.21875-33.695312 31.4375-.964844 2.894532-.308594 6.085938 1.71875 8.367188 2.023437 2.28125 5.113281 3.308594 8.105469 2.695312 2.988281-.613281 5.425781-2.773437 6.386718-5.671875 1.375-4.171875 8.421875-19.761719 17.484375-19.761719 7.03125-.375 13.96875 1.765626 19.570313 6.03125 3.347656 3.234376 8.667968 3.1875 11.960937-.101562 3.292969-3.292969 3.335938-8.617188.101563-11.964844-8.742188-7.585937-20.0625-11.535156-31.632813-11.03125zm0 0"/><path d="m168.273438 301.261719c-.816407-.769531-1.773438-1.375-2.816407-1.792969-2.078125-.851562-4.40625-.851562-6.484375 0-2.144531.777344-3.832031 2.464844-4.609375 4.609375-.4375 1.027344-.667969 2.128906-.683593 3.242187-.03125 2.246094.863281 4.410157 2.476562 5.972657 2 2.042969 4.890625 2.941406 7.695312 2.390625 2.804688-.554688 5.140626-2.480469 6.214844-5.128906.910156-2.066407.910156-4.417969 0-6.484376-.433594-1.03125-1.039062-1.980468-1.792968-2.808593zm0 0"/><path d="m202.40625 326.863281c-.816406-.769531-1.773438-1.378906-2.816406-1.792969-2.078125-.855468-4.40625-.855468-6.484375 0-2.144531.777344-3.832031 2.464844-4.609375 4.609376-.4375 1.023437-.667969 2.125-.679688 3.242187-.035156 2.246094.859375 4.40625 2.472656 5.972656 2 2.042969 4.890626 2.941407 7.695313 2.386719 2.804687-.550781 5.140625-2.480469 6.214844-5.125.910156-2.066406.910156-4.421875 0-6.488281-.433594-1.03125-1.039063-1.980469-1.792969-2.804688zm0 0"/><path d="m159.742188 335.394531c-.820313-.769531-1.773438-1.375-2.816407-1.792969-2.078125-.851562-4.410156-.851562-6.488281 0-2.140625.777344-3.832031 2.464844-4.605469 4.609376-.4375 1.027343-.671875 2.128906-.683593 3.242187-.035157 2.25.859374 4.410156 2.472656 5.972656 2 2.042969 4.894531 2.941407 7.695312 2.390625 2.804688-.550781 5.140625-2.480468 6.214844-5.128906.910156-2.066406.910156-4.417969 0-6.484375-.433594-1.03125-1.039062-1.980469-1.789062-2.808594zm0 0"/><path d="m125.605469 352.460938c-.816407-.765626-1.773438-1.375-2.816407-1.792969-2.074218-.851563-4.40625-.851563-6.484374 0-2.144532.777343-3.832032 2.464843-4.605469 4.609375-.445313 1.039062-.675781 2.15625-.683594 3.285156-.035156 2.246094.859375 4.410156 2.472656 5.972656 2 2.042969 4.890625 2.941406 7.695313 2.390625 2.804687-.550781 5.140625-2.480469 6.214844-5.128906.910156-2.066406.910156-4.417969 0-6.484375-.429688-1.046875-1.035157-2.011719-1.792969-2.851562zm0 0"/><path d="m125.605469 318.328125c-.816407-.769531-1.773438-1.375-2.816407-1.792969-2.074218-.851562-4.40625-.851562-6.484374 0-2.144532.777344-3.832032 2.464844-4.605469 4.609375-.4375 1.027344-.671875 2.128907-.683594 3.242188-.035156 2.246093.859375 4.410156 2.472656 5.972656 2 2.042969 4.890625 2.941406 7.695313 2.390625 2.804687-.554688 5.140625-2.480469 6.214844-5.128906.910156-2.066406.910156-4.417969 0-6.484375-.433594-1.03125-1.039063-1.980469-1.792969-2.808594zm0 0"/><path d="m330.40625 313.335938c1.617188-1.5625 2.511719-3.726563 2.476562-5.972657-.015624-1.113281-.246093-2.21875-.683593-3.242187-.777344-2.144532-2.464844-3.832032-4.609375-4.609375-2.074219-.859375-4.410156-.859375-6.484375 0-1.042969.414062-2 1.019531-2.816407 1.792969-.753906.828124-1.359374 1.78125-1.792968 2.816406-.90625 2.066406-.90625 4.417968 0 6.484375 1.074218 2.648437 3.410156 4.578125 6.21875 5.128906 2.804687.550781 5.695312-.351563 7.691406-2.398437zm0 0"/><path d="m296.273438 326.90625c-.816407-.773438-1.769532-1.382812-2.816407-1.792969-2.074219-.863281-4.410156-.863281-6.484375 0-1.042968.410157-2 1.019531-2.816406 1.792969-.753906.828125-1.359375 1.78125-1.792969 2.8125-.910156 2.066406-.910156 4.421875 0 6.488281 1.074219 2.648438 3.410157 4.578125 6.214844 5.128907 2.808594.550781 5.699219-.351563 7.695313-2.398438 1.617187-1.5625 2.511718-3.726562 2.476562-5.972656-.015625-1.117188-.246094-2.21875-.683594-3.246094-.414062-1.042969-1.019531-2-1.792968-2.8125zm0 0"/><path d="m338.941406 335.4375c-.816406-.769531-1.773437-1.378906-2.816406-1.792969-2.078125-.859375-4.410156-.859375-6.484375 0-1.046875.414063-2 1.023438-2.816406 1.792969-.753907.832031-1.359375 1.78125-1.792969 2.816406-.910156 2.066406-.910156 4.417969 0 6.484375 1.074219 2.652344 3.410156 4.578125 6.214844 5.128907 2.804687.550781 5.699218-.351563 7.695312-2.398438 1.617188-1.5625 2.511719-3.722656 2.472656-5.972656-.011718-1.113282-.246093-2.214844-.683593-3.242188-.410157-1.042968-1.019531-2-1.789063-2.816406zm0 0"/><path d="m373.074219 352.503906c-.816407-.769531-1.773438-1.378906-2.816407-1.792968-2.074218-.859376-4.410156-.859376-6.484374 0-1.046876.414062-2 1.023437-2.816407 1.792968-.753906.832032-1.359375 1.78125-1.792969 2.816406-.910156 2.066407-.910156 4.417969 0 6.484376 1.074219 2.652343 3.410157 4.582031 6.214844 5.132812 2.804688.546875 5.699219-.351562 7.695313-2.402344 1.617187-1.5625 2.511719-3.722656 2.472656-5.972656-.011719-1.113281-.242187-2.214844-.679687-3.242188-.414063-1.042968-1.023438-2-1.792969-2.816406zm0 0"/><path d="m373.074219 318.371094c-.816407-.769532-1.773438-1.378906-2.816407-1.792969-2.074218-.859375-4.410156-.859375-6.484374 0-1.046876.414063-2 1.023437-2.816407 1.792969-.753906.828125-1.359375 1.78125-1.792969 2.816406-.910156 2.066406-.910156 4.417969 0 6.484375 1.074219 2.648437 3.410157 4.578125 6.214844 5.128906 2.804688.550781 5.699219-.351562 7.695313-2.398437 1.617187-1.5625 2.511719-3.722656 2.472656-5.972656-.011719-1.113282-.242187-2.214844-.679687-3.242188-.414063-1.042969-1.023438-2-1.792969-2.816406zm0 0"/><path d="m239.015625 204.964844c1.320313 0 2.621094-.308594 3.804687-.898438 21.546876-10.769531 21.792969-40.515625 21.792969-41.769531 0-4.714844-3.820312-8.535156-8.53125-8.535156-4.714843 0-8.535156 3.820312-8.535156 8.535156 0 .195313-.339844 20.480469-12.347656 26.496094-3.542969 1.765625-5.40625 5.742187-4.496094 9.597656.90625 3.855469 4.351563 6.578125 8.3125 6.574219zm0 0"/><path d="m196.347656 179.363281c4.714844 0 8.535156-3.820312 8.535156-8.535156 0-4.710937-3.820312-8.53125-8.535156-8.53125-33.78125 0-51.832031-37.386719-52.011718-37.761719-2.042969-4.179687-7.066407-5.949218-11.28125-3.976562-4.21875 1.976562-6.074219 6.964844-4.171876 11.214844.90625 1.9375 22.726563 47.589843 67.464844 47.589843zm0 0"/><path d="m298.75 179.363281c44.738281 0 66.558594-45.652343 67.460938-47.589843 1.902343-4.25.046874-9.238282-4.167969-11.214844-4.21875-1.972656-9.238281-.203125-11.285157 3.976562-.179687.375-18.226562 37.761719-52.007812 37.761719-4.714844 0-8.535156 3.820313-8.535156 8.53125 0 4.714844 3.820312 8.535156 8.535156 8.535156zm0 0"/><path d="m460.277344 205.5c-8.574219-115.882812-105.101563-205.5195312-221.300782-205.5-116.199218.0195312-212.699218 89.691406-221.230468 205.578125-.738282 9.417969-2.777344 18.6875-6.058594 27.546875-7.691406 21.050781-11.6171875 43.292969-11.6054688 65.703125 0 117.632813 107.1874998 213.335937 238.9335938 213.335937s238.933594-95.703124 238.933594-213.335937c.007812-22.4375-3.921875-44.703125-11.613281-65.78125-3.277344-8.859375-5.316407-18.128906-6.058594-27.546875zm-221.261719 289.597656c-122.335937 0-221.867187-88.039062-221.867187-196.269531-.007813-20.40625 3.570312-40.65625 10.574218-59.824219 3.820313-10.347656 6.191406-21.175781 7.046875-32.171875 7.867188-106.976562 96.945313-189.753906 204.210938-189.777343 107.261719-.019532 196.371093 82.726562 204.28125 189.699218.847656 10.988282 3.21875 21.808594 7.039062 32.144532 7.011719 19.203124 10.59375 39.488281 10.582031 59.929687 0 108.230469-99.535156 196.269531-221.867187 196.269531zm0 0"/></svg>