<?xml version="1.0" standalone="no"?><!-- Generator: Gravit.io --><svg xmlns="http://www.w3.org/2000/svg" xmlns:xlink="http://www.w3.org/1999/xlink" style="isolation:isolate" viewBox="0 0 200 200" width="200" height="200"><defs><clipPath id="_clipPath_xqrEIBkMiRPVf1TMwn0s9uZnVQZIYwLf"><rect width="200" height="200"/></clipPath></defs><g clip-path="url(#_clipPath_xqrEIBkMiRPVf1TMwn0s9uZnVQZIYwLf)"><rect width="200" height="200" style="fill:rgb(0,0,0)" fill-opacity="0"/><circle vector-effect="non-scaling-stroke" cx="0" cy="0" r="1" transform="matrix(95,0,0,95,100,100)" fill="rgb(0,0,255)"/><g><path d=" M 40.774 91.721 C 37.852 88.469 35.29 84.91 33.135 81.106 C 28.816 73.527 26.051 65.163 25 56.503 L 25 53.726 C 25.113 51.962 25.811 50.286 26.984 48.964 C 27.598 48.365 28.346 47.923 29.167 47.674 C 29.714 47.506 30.281 47.406 30.853 47.376 L 31.944 47.376 C 33.433 47.376 35.119 47.178 36.508 47.476 C 37.996 47.773 58.432 48.071 71.23 60.372 C 79.861 55.412 113.293 56.999 120.337 63.349 C 120.337 61.364 139.583 49.063 163.293 50.65 C 165.125 50.702 166.908 51.251 168.452 52.237 C 169.127 52.715 169.7 53.322 170.139 54.023 L 170.932 55.908 C 171.373 58.447 171.272 61.05 170.635 63.547 C 170.038 66.188 169.14 68.751 167.956 71.186 C 166.108 75.361 163.918 79.375 161.408 83.19 L 156.547 92.019 L 157.539 92.218 L 157.539 98.964 L 153.869 99.956 C 155.265 104.205 155.738 108.703 155.258 113.15 C 154.538 118.79 151.954 124.028 147.916 128.031 L 145.932 130.015 C 142.135 133.3 138.089 136.285 133.829 138.944 C 130.406 140.967 126.782 142.629 123.016 143.904 L 122.619 144.102 L 122.321 144.202 L 122.123 144.598 C 121.082 146.657 119.63 148.48 117.857 149.956 C 116.752 150.928 115.556 151.792 114.286 152.535 C 110.022 154.879 105.26 156.172 100.397 156.305 C 97.921 156.509 95.432 156.509 92.956 156.305 C 88.807 155.949 84.713 155.117 80.754 153.825 C 79.209 153.22 77.716 152.49 76.29 151.642 C 74.575 150.512 73.094 149.064 71.925 147.376 C 71.784 147.184 71.651 146.985 71.528 146.781 L 71.032 146.682 C 63.139 145.461 55.859 141.699 50.298 135.967 C 46.521 131.928 43.796 127.022 42.361 121.682 C 41.372 118.246 40.708 114.726 40.377 111.166 C 39.905 107.515 39.805 103.825 40.079 100.154 L 40.079 99.36 L 38.79 98.964 L 38.69 92.218 L 40.675 91.721 L 40.774 91.721 Z " fill-rule="evenodd" fill="rgb(0,0,0)" fill-opacity="0.2"/><path d=" M 44.544 88.051 C 41.604 84.777 39.042 81.183 36.905 77.337 C 32.586 69.757 29.821 61.393 28.77 52.733 C 28.729 52.04 28.729 51.344 28.77 50.65 L 28.77 49.956 C 28.871 48.409 29.423 46.926 30.357 45.69 C 31.015 44.846 31.915 44.223 32.936 43.904 C 33.452 43.744 33.985 43.644 34.524 43.607 L 35.714 43.607 C 37.103 43.607 38.889 43.408 40.278 43.706 C 41.766 44.003 62.103 44.301 75 56.603 C 83.631 51.642 116.964 53.23 124.107 59.579 C 124.107 57.595 143.254 45.392 167.063 46.88 C 168.904 46.962 170.688 47.545 172.222 48.567 C 172.837 49.041 173.373 49.611 173.809 50.253 C 174.603 51.75 175.012 53.42 175 55.114 C 175 56.801 174.702 58.289 174.404 59.777 C 173.742 62.443 172.811 65.036 171.627 67.515 C 169.791 71.646 167.635 75.626 165.178 79.42 L 160.218 88.348 L 161.309 88.547 L 161.21 95.194 L 157.639 96.186 C 158.984 100.446 159.423 104.94 158.928 109.38 C 158.266 115.017 155.713 120.262 151.686 124.261 C 150.34 125.601 148.916 126.86 147.42 128.031 C 144.312 130.706 140.995 133.128 137.5 135.273 C 134.108 137.29 130.518 138.952 126.786 140.233 L 126.29 140.432 L 125.992 140.432 L 125.893 140.829 C 124.864 142.923 123.411 144.781 121.627 146.285 C 120.487 147.23 119.258 148.06 117.956 148.765 C 113.751 151.076 109.061 152.367 104.266 152.535 C 101.757 152.742 99.235 152.742 96.726 152.535 C 92.576 152.183 88.482 151.35 84.524 150.055 C 82.973 149.463 81.479 148.733 80.059 147.872 C 79.067 147.277 78.075 146.483 77.282 145.69 C 76.489 144.902 75.82 143.999 75.298 143.011 L 74.801 143.011 C 66.85 141.75 59.532 137.916 53.968 132.098 C 50.242 128.077 47.552 123.207 46.131 117.912 C 45.142 114.476 44.478 110.956 44.147 107.396 C 43.631 103.482 43.531 99.525 43.849 95.591 L 42.559 95.194 L 42.361 88.547 L 44.544 88.051 Z " fill-rule="evenodd" fill="rgb(255,255,255)" vector-effect="non-scaling-stroke" stroke-width="0.293" stroke="rgb(207,207,207)" stroke-linejoin="round" stroke-linecap="butt" stroke-miterlimit="1.41"/><path d=" M 72.619 62.952 C 72.619 62.952 95.536 53.031 125 66.027 C 125 66.027 137.599 55.809 158.135 52.733 C 178.67 49.658 158.432 80.412 158.432 80.412 L 150.496 94.598 C 150.496 94.598 158.234 110.273 145.238 122.178 C 138.901 128.48 131.194 133.233 122.718 136.067 C 122.718 136.067 118.849 147.575 99.008 146.88 C 80.159 146.186 78.075 138.051 78.075 138.051 C 78.075 138.051 56.448 136.662 51.091 113.944 C 47.321 97.575 51.091 89.341 51.091 89.341 C 51.091 89.341 39.881 78.428 36.31 60.571 C 33.135 44.499 43.056 49.956 50.496 51.146 C 57.44 52.138 71.329 60.075 72.718 62.853 L 72.619 62.952 Z " fill-rule="evenodd" fill="rgb(230,182,120)"/><path d=" M 48.809 88.845 C 46.153 85.862 43.825 82.602 41.865 79.122 C 37.916 72.148 35.387 64.46 34.425 56.503 L 34.425 53.924 C 34.515 52.529 34.996 51.189 35.813 50.055 C 36.42 49.267 37.25 48.679 38.194 48.368 C 38.903 48.16 39.639 48.06 40.377 48.071 L 40.774 48.071 C 42.063 48.071 43.353 48.269 44.643 48.567 L 48.313 49.46 L 49.306 49.658 L 50.298 49.856 L 51.091 49.956 L 51.488 49.956 C 53.617 50.392 55.683 51.092 57.639 52.039 C 62.615 54.152 67.34 56.814 71.726 59.976 L 73.115 61.364 L 73.809 61.067 C 90.537 56.193 108.445 57.351 124.405 64.341 L 124.801 64.44 L 125.297 64.142 L 125.992 63.646 C 135.724 57.265 146.724 53.068 158.234 51.345 L 159.424 51.245 C 160.085 51.2 160.748 51.2 161.408 51.245 C 163.061 51.268 164.675 51.749 166.071 52.634 C 166.658 53.071 167.162 53.608 167.559 54.222 C 167.898 54.746 168.165 55.313 168.353 55.908 C 168.592 56.847 168.692 57.817 168.651 58.785 C 168.262 62.7 167.223 66.522 165.575 70.095 C 163.878 73.882 161.888 77.53 159.623 81.007 L 155.158 89.142 L 156.151 89.341 L 155.952 95.491 L 152.778 96.483 C 154.018 100.356 154.424 104.447 153.968 108.487 C 153.215 114.545 150.116 120.066 145.337 123.864 L 143.353 125.65 C 140.511 128.054 137.493 130.243 134.325 132.198 C 131.188 134.064 127.863 135.594 124.405 136.761 L 124.008 136.96 L 123.71 136.96 C 122.757 138.989 121.368 140.785 119.643 142.217 C 118.643 143.159 117.545 143.99 116.369 144.698 C 112.468 146.838 108.118 148.028 103.67 148.17 C 96.433 148.52 89.209 147.232 82.54 144.4 C 81.223 143.689 80.019 142.787 78.968 141.721 C 78.41 141.181 77.911 140.582 77.48 139.936 L 77.083 139.34 L 76.686 139.34 C 69.44 138.156 62.763 134.679 57.639 129.42 C 54.19 125.713 51.703 121.216 50.397 116.325 C 49.436 113.186 48.772 109.964 48.413 106.702 C 48.003 103.344 47.937 99.954 48.214 96.583 L 48.214 95.888 L 47.024 95.491 L 46.925 89.341 L 48.909 88.845 L 48.809 88.845 Z  M 50.893 96.583 C 50.383 101.667 50.752 106.802 51.984 111.761 L 52.976 115.63 C 54.252 119.933 56.415 123.92 59.325 127.337 C 62.642 131.034 66.89 133.775 71.627 135.273 C 73.687 135.984 75.815 136.482 77.976 136.761 L 79.067 136.761 C 79.067 137.158 79.266 137.456 79.365 137.753 C 79.509 138.175 79.709 138.575 79.96 138.944 C 80.524 139.696 81.192 140.364 81.944 140.928 C 82.936 141.721 84.226 142.317 85.417 142.912 C 91.966 145.217 98.956 145.998 105.853 145.194 C 109.424 144.797 112.797 143.706 115.774 141.821 C 117.877 140.491 119.643 138.691 120.932 136.563 C 121.122 136.245 121.288 135.913 121.428 135.571 L 121.627 134.975 L 123.809 134.083 C 126.923 132.855 129.969 131.464 132.936 129.916 C 136.805 127.744 140.374 125.076 143.551 121.979 L 145.139 120.392 C 146.977 118.582 148.487 116.468 149.603 114.142 C 151.363 110.296 151.916 106.007 151.19 101.841 L 151.19 101.543 C 148.313 115.729 141.567 115.035 141.567 115.035 C 141.567 115.035 128.174 116.523 119.147 115.531 C 110.119 114.539 104.96 100.253 104.96 100.253 L 98.016 100.253 C 98.016 100.253 92.956 114.44 83.928 115.531 C 74.901 116.523 61.508 115.035 61.508 115.035 C 61.508 115.035 53.175 115.928 51.091 96.682 L 50.893 96.682 L 50.893 96.583 Z  M 105.853 142.813 C 105.853 143.21 105.059 144.003 104.464 144.102 C 102.877 144.301 97.718 144.301 96.131 144.102 C 95.536 144.102 94.742 143.21 94.742 142.813 C 94.742 142.317 95.536 141.523 96.131 141.424 C 97.718 141.225 102.877 141.225 104.464 141.424 C 105.059 141.523 105.853 142.416 105.853 142.813 Z  M 99.901 121.483 C 105.159 121.483 109.424 125.848 109.424 131.106 C 109.424 136.463 105.159 140.829 99.901 140.829 C 97.331 140.829 94.868 139.801 93.061 137.975 C 91.253 136.149 90.251 133.676 90.278 131.106 C 90.278 125.848 94.544 121.483 99.901 121.483 Z  M 59.524 89.737 C 59.524 89.737 75.595 86.364 87.5 90.729 C 96.528 94.202 92.163 100.948 90.079 104.618 C 87.996 108.289 83.036 111.662 80.456 111.96 C 77.877 112.257 64.583 111.563 64.583 111.563 C 64.583 111.563 56.944 109.579 55.456 98.666 C 54.563 92.118 59.524 89.737 59.524 89.737 Z  M 143.452 89.737 C 143.452 89.737 127.48 86.364 115.476 90.729 C 106.547 94.202 110.813 100.948 112.996 104.618 C 114.98 108.289 120.04 111.662 122.619 111.96 C 125.099 112.257 138.393 111.563 138.393 111.563 C 138.393 111.563 146.131 109.579 147.52 98.666 C 148.512 92.118 143.551 89.737 143.551 89.737 L 143.452 89.737 Z  M 124.405 93.706 C 127.381 94.896 128.77 98.071 127.678 100.848 C 126.686 103.527 123.313 104.817 120.436 103.626 C 119.044 103.155 117.901 102.141 117.266 100.815 C 116.631 99.489 116.558 97.963 117.063 96.583 C 118.254 93.805 121.428 92.614 124.405 93.706 Z  M 82.639 93.706 C 85.615 94.896 87.004 98.071 85.913 100.848 C 84.921 103.527 81.548 104.817 78.671 103.626 C 77.278 103.155 76.135 102.141 75.5 100.815 C 74.865 99.489 74.792 97.963 75.298 96.583 C 76.389 93.805 79.663 92.614 82.639 93.706 Z  M 152.48 88.448 L 157.341 79.718 L 157.837 78.924 L 158.333 78.031 C 160.58 74.268 162.569 70.357 164.285 66.325 C 164.972 64.285 165.503 62.195 165.873 60.075 L 165.972 59.281 L 165.972 58.091 C 165.94 57.13 165.63 56.2 165.079 55.412 C 164.646 54.858 164.06 54.444 163.393 54.222 C 162.819 54.008 162.218 53.874 161.607 53.825 C 160.516 53.825 159.424 53.825 158.333 54.023 C 147.256 55.745 136.671 59.803 127.282 65.928 L 125.793 67.019 L 125.198 67.614 L 123.71 66.92 L 122.718 66.523 C 118.662 64.875 114.482 63.548 110.218 62.555 C 98.756 59.95 86.827 60.223 75.496 63.349 L 73.313 64.142 L 72.024 64.638 L 71.428 63.547 C 65.17 58.728 58.12 55.035 50.595 52.634 L 49.802 52.436 L 49.008 52.337 L 45.04 51.345 C 44.742 51.345 44.444 51.345 44.048 51.146 C 42.678 50.856 41.28 50.723 39.881 50.749 C 39.349 50.779 38.836 50.95 38.393 51.245 L 38.194 51.444 C 37.697 51.93 37.352 52.55 37.202 53.23 L 37.202 54.122 C 37.107 54.945 37.073 55.774 37.103 56.603 L 37.202 57.892 C 37.351 59.163 37.583 60.422 37.897 61.662 C 40.124 71.556 44.914 80.691 51.786 88.15 L 55.754 87.257 C 55.754 87.257 61.508 85.67 69.345 85.174 C 79.482 84.036 89.708 86.305 98.413 91.622 C 99.603 92.019 100.595 92.218 101.488 92.218 C 102.572 92.194 103.644 91.993 104.663 91.622 C 105.655 91.126 106.25 90.531 106.25 90.531 C 122.42 80.412 147.222 87.257 147.222 87.257 L 152.48 88.448 Z " fill-rule="evenodd" fill="rgb(67,50,49)"/><path d=" M 144.246 82.396 L 136.508 76.047 C 136.21 72.476 137.797 68.904 142.063 65.432 C 142.063 65.432 154.563 59.876 159.821 60.472 C 165.079 61.067 147.916 74.658 144.246 82.297 L 144.246 82.396 Z  M 57.54 81.702 L 65.972 76.345 C 66.667 72.872 65.575 69.102 61.706 65.134 C 61.706 65.134 50 58.19 44.643 58.19 C 39.286 58.19 54.762 73.468 57.54 81.702 Z " fill-rule="evenodd" fill="rgb(243,221,192)"/><path d=" M 121.428 95.789 C 122.024 96.087 122.222 96.781 122.024 97.376 C 121.726 97.971 121.032 98.368 120.536 98.17 C 119.94 97.872 119.742 97.178 119.94 96.583 C 120.238 95.888 120.932 95.591 121.428 95.789 Z  M 79.663 95.789 C 80.258 96.087 80.456 96.781 80.258 97.376 C 79.96 97.971 79.266 98.368 78.77 98.17 C 78.175 97.872 77.877 97.178 78.175 96.583 C 78.373 95.888 79.167 95.591 79.663 95.789 Z " fill-rule="evenodd" fill="rgb(255,255,255)"/></g></g></svg>