<?xml version="1.0" standalone="no"?>
<!DOCTYPE svg PUBLIC "-//W3C//DTD SVG 20010904//EN"
 "http://www.w3.org/TR/2001/REC-SVG-20010904/DTD/svg10.dtd">
<svg version="1.0" xmlns="http://www.w3.org/2000/svg"
 width="800.000000pt" height="800.000000pt" viewBox="0 0 800.000000 800.000000"
 preserveAspectRatio="xMidYMid meet">
<metadata>
Created by potrace 1.15, written by Peter Selinger 2001-2017
</metadata>
<g transform="translate(0.000000,800.000000) scale(0.100000,-0.100000)"
fill="#000000" stroke="none">
<path d="M4628 7461 c-4 -29 -3 -30 41 -36 118 -15 106 -4 120 -107 7 -51 15
-98 18 -105 4 -10 -9 -13 -49 -13 -30 0 -59 -5 -66 -12 -9 -9 -12 -136 -12
-509 0 -439 2 -499 16 -513 13 -14 51 -16 265 -16 154 0 258 4 270 10 18 10
19 27 19 513 0 378 -3 506 -12 515 -8 8 -65 12 -189 12 -161 0 -178 2 -183 18
-2 9 -12 64 -21 122 -10 58 -21 110 -26 116 -5 7 -40 15 -77 19 -37 3 -77 9
-88 12 -18 4 -22 -1 -26 -26z m188 -343 c9 -15 33 -142 33 -180 1 -23 -3 -28
-24 -28 l-25 0 0 -320 0 -320 165 0 165 0 0 320 0 319 -107 3 -107 3 -13 75
c-7 41 -15 90 -18 108 l-6 33 148 -3 148 -3 3 -447 2 -448 -215 0 -215 0 0
443 c0 244 3 447 7 450 11 11 51 8 59 -5z m179 -464 c8 -4 15 -16 15 -28 -1
-24 -16 -95 -23 -102 -5 -6 -110 16 -120 25 -4 4 -2 33 5 65 l11 58 49 -6 c26
-4 55 -9 63 -12z m75 -210 c6 -14 13 -42 16 -62 l6 -38 -57 -18 c-32 -10 -60
-14 -64 -9 -10 10 -31 85 -31 106 0 11 17 22 48 31 65 20 71 20 82 -10z"/>
<path d="M5190 7451 c-44 -14 -84 -38 -112 -68 -53 -55 -79 -163 -39 -163 14
0 20 10 25 38 7 44 39 96 77 125 30 22 101 33 153 23 70 -13 136 -98 136 -176
0 -75 -63 -158 -132 -175 -21 -5 -28 -13 -28 -30 0 -21 3 -23 28 -16 106 31
172 115 172 221 0 89 -44 161 -123 201 -44 23 -120 32 -157 20z"/>
<path d="M6811 7230 c-46 -27 -88 -53 -93 -58 -6 -6 -15 -52 -22 -104 l-11
-93 -165 -5 -165 -5 0 -70 c0 -69 0 -70 28 -73 15 -2 27 -5 27 -6 0 -41 73
-653 78 -658 5 -5 105 -7 222 -6 l214 3 36 330 35 330 28 3 c27 3 27 4 27 78
l0 74 -144 0 c-80 0 -146 3 -148 8 -2 4 0 40 5 79 l9 73 84 46 c46 25 84 50
84 55 0 19 -21 49 -33 48 -7 -1 -50 -23 -96 -49z m59 -610 l0 -90 -167 2 -168
3 -3 88 -3 87 171 0 170 0 0 -90z"/>
<path d="M3121 6964 c-172 -46 -301 -182 -334 -351 -13 -65 -24 -63 462 -63
494 0 468 -4 457 74 -16 106 -110 233 -219 295 -103 59 -248 77 -366 45z m251
-74 c102 -31 192 -106 234 -195 13 -27 24 -56 24 -62 0 -10 -82 -13 -379 -13
-209 0 -382 4 -385 8 -9 15 40 106 82 153 43 49 135 103 198 118 67 16 158 12
226 -9z"/>
<path d="M1872 6953 c-18 -9 -43 -30 -55 -47 -21 -29 -22 -41 -22 -228 0 -188
1 -198 23 -227 20 -27 22 -41 22 -149 0 -124 6 -142 45 -142 45 0 45 4 45 417
0 308 -3 393 -12 393 -7 0 -28 -8 -46 -17z"/>
<path d="M1222 6915 c-194 -54 -318 -248 -283 -439 48 -258 322 -396 557 -281
70 35 156 128 185 202 32 82 32 205 -1 288 -33 84 -132 183 -215 214 -77 29
-174 35 -243 16z m239 -79 c66 -31 132 -97 162 -164 34 -73 31 -198 -6 -274
-32 -65 -84 -116 -159 -155 -75 -38 -188 -40 -268 -2 -80 37 -125 81 -162 157
-29 59 -33 76 -32 147 0 90 20 144 78 212 35 40 117 90 170 104 58 15 157 4
217 -25z"/>
<path d="M1225 6807 c-85 -33 -148 -98 -175 -180 -16 -51 -9 -162 14 -209 26
-54 83 -108 144 -135 45 -21 65 -24 125 -21 87 5 137 27 194 85 136 140 78
393 -107 458 -50 18 -152 19 -195 2z m166 -33 c76 -23 141 -89 164 -167 28
-95 2 -181 -73 -249 -124 -112 -324 -65 -389 90 -22 54 -19 143 7 197 27 57
91 111 150 130 60 18 76 18 141 -1z"/>
<path d="M637 6914 c-9 -9 -9 -266 -1 -288 4 -10 18 -16 40 -16 l34 0 0 -206
c0 -122 4 -213 10 -225 12 -22 52 -25 69 -6 7 9 12 89 13 223 l3 209 30 3 c52
6 55 14 55 156 0 72 -4 137 -9 144 -4 8 -19 12 -32 10 -24 -3 -24 -5 -27 -120
-2 -95 -5 -118 -17 -118 -12 0 -15 23 -17 118 -3 115 -3 117 -27 120 -13 2
-28 -2 -32 -10 -5 -7 -9 -61 -9 -120 0 -148 -19 -140 -22 10 l-3 117 -25 3
c-14 2 -29 0 -33 -4z"/>
<path d="M3100 6523 c-14 -2 -47 -12 -75 -21 -31 -10 -81 -16 -132 -16 -88 1
-101 -7 -65 -40 17 -15 58 -16 428 -14 l408 3 16 27 c13 25 13 29 -1 43 -23
24 -130 23 -199 -1 -68 -23 -167 -24 -235 -1 -60 19 -111 26 -145 20z"/>
<path d="M2800 6395 c-19 -23 -5 -111 25 -156 14 -21 44 -49 68 -61 40 -22 53
-23 334 -26 190 -2 306 1 333 8 49 13 108 63 126 107 20 46 18 129 -2 137 -9
3 -208 6 -444 6 -370 0 -429 -2 -440 -15z m830 -74 c0 -10 -10 -31 -22 -46
-40 -52 -63 -55 -365 -55 -251 0 -282 2 -313 18 -34 18 -74 77 -64 94 3 4 176
8 385 8 363 0 379 -1 379 -19z"/>
<path d="M6782 5526 c-1 -35 -12 -66 -42 -120 -45 -83 -49 -116 -18 -166 l21
-35 13 55 c7 30 24 81 38 113 31 70 34 141 7 176 l-18 24 -1 -47z"/>
<path d="M6578 5432 c-3 -45 -13 -72 -43 -122 -53 -88 -59 -152 -19 -200 l29
-34 6 50 c4 27 23 91 43 141 41 103 44 144 16 191 -11 17 -21 32 -24 32 -2 0
-5 -26 -8 -58z"/>
<path d="M4846 5410 c-54 -17 -105 -61 -131 -113 -14 -28 -25 -59 -25 -68 0
-11 -11 -20 -31 -24 -47 -11 -104 -68 -119 -118 -20 -74 15 -158 80 -192 33
-17 122 -20 150 -5 32 17 64 -24 93 -120 26 -84 59 -221 71 -292 10 -58 44
-78 130 -78 52 0 79 5 102 19 35 21 36 25 59 166 9 54 23 130 31 167 14 63 17
68 38 62 73 -18 187 65 201 144 16 96 -62 212 -144 212 -12 0 -31 16 -48 42
-32 48 -85 78 -149 86 -34 4 -49 11 -65 33 -46 64 -166 104 -243 79z m229
-608 c11 -72 25 -136 30 -141 20 -20 36 6 55 88 25 104 32 118 48 98 10 -11 8
-33 -7 -98 -11 -46 -25 -124 -31 -174 -14 -110 -27 -125 -105 -125 -33 0 -57
5 -64 14 -7 8 -21 58 -32 112 -11 54 -33 137 -49 186 -33 104 -23 118 14 20
34 -88 52 -114 79 -110 28 4 33 45 17 151 -6 42 -8 87 -5 98 15 45 31 7 50
-119z"/>
<path d="M1004 5120 c-21 -38 -35 -52 -63 -61 -122 -40 -247 -136 -277 -214
-23 -61 -7 -105 65 -175 49 -48 168 -120 198 -120 24 0 128 89 170 145 39 51
45 56 39 30 -4 -16 -26 -69 -50 -117 -50 -100 -51 -98 60 -98 50 0 68 -5 110
-31 27 -17 59 -40 71 -52 18 -16 23 -17 27 -6 35 112 38 117 83 130 60 16 148
71 203 124 l45 44 138 -74 c126 -68 167 -85 167 -69 0 3 -20 55 -45 116 l-46
110 46 111 c25 61 42 114 38 118 -5 5 -74 -27 -156 -70 l-147 -79 -21 26 c-11
15 -42 43 -69 63 l-48 36 17 29 c10 16 30 40 45 53 l26 25 -57 20 c-51 17 -86
19 -288 20 -126 1 -235 4 -242 9 -7 5 -21 -10 -39 -43z"/>
<path d="M3385 5125 c-79 -23 -95 -29 -95 -34 0 -3 26 -14 58 -24 31 -10 78
-32 105 -48 26 -16 57 -29 68 -29 19 0 21 4 16 36 -8 47 -32 82 -63 94 -24 10
-67 12 -89 5z"/>
<path d="M3093 5069 c-286 -56 -426 -408 -233 -582 77 -69 158 -91 313 -84
247 10 431 104 500 255 17 37 22 66 22 139 0 83 -2 94 -24 117 -36 39 -85 50
-156 37 -111 -20 -207 -82 -262 -167 -7 -10 -6 -1 2 21 23 57 78 109 151 142
35 15 64 31 64 35 0 14 -131 69 -198 83 -74 16 -116 17 -179 4z"/>
<path d="M3710 5060 c-11 -11 -20 -31 -20 -43 0 -13 -9 -32 -20 -42 -14 -13
-17 -22 -10 -29 14 -14 72 43 65 65 -3 9 1 22 10 29 18 15 45 7 45 -14 0 -7 9
-16 20 -19 26 -7 26 -44 0 -52 -11 -3 -24 -4 -29 0 -6 3 -24 -7 -42 -23 -25
-22 -30 -32 -22 -45 8 -16 11 -15 33 8 13 14 33 25 45 25 33 0 65 28 65 58 0
37 -61 102 -94 102 -15 0 -35 -9 -46 -20z"/>
<path d="M6259 5021 c-22 -18 -24 -28 -27 -124 -7 -209 34 -334 145 -437 l64
-60 168 0 168 0 40 29 c22 16 56 49 76 73 30 36 47 48 94 61 218 60 248 344
40 386 -23 5 -33 14 -39 36 -14 55 -14 55 -374 55 -312 0 -333 -1 -355 -19z
m669 -183 c-6 -152 -24 -214 -85 -292 -62 -79 -80 -86 -235 -86 l-134 0 -41
35 c-95 81 -133 184 -133 362 l0 113 316 0 317 0 -5 -132z m133 29 c40 -27 54
-61 45 -111 -8 -41 -55 -100 -97 -122 -44 -22 -48 -18 -33 33 8 25 14 86 14
135 0 100 8 108 71 65z"/>
<path d="M5075 3875 c17 -47 18 -155 1 -200 -16 -40 -21 -45 -50 -45 -66 0
-110 -86 -77 -149 17 -32 68 -54 107 -47 40 8 84 57 84 94 0 31 -34 92 -51 92
-7 0 -9 9 -5 23 27 93 24 214 -6 242 -8 7 -9 5 -3 -10z"/>
<path d="M7022 3630 c-27 -26 -28 -51 -2 -75 16 -14 19 -26 15 -47 -6 -23 -3
-28 13 -28 15 0 24 11 33 37 11 35 10 38 -16 59 -44 35 -11 40 43 6 26 -17 64
-38 85 -48 20 -10 37 -24 37 -32 0 -11 -8 -9 -36 7 -19 12 -41 21 -48 21 -19
0 -79 -79 -72 -96 8 -21 22 -17 50 17 26 31 27 31 60 15 44 -21 59 -20 81 4
15 16 16 25 7 45 -6 13 -21 30 -34 38 -106 64 -167 97 -179 97 -8 0 -25 -9
-37 -20z"/>
<path d="M1279 3539 c-66 -10 -99 -30 -202 -123 -51 -45 -127 -103 -169 -129
-140 -86 -185 -163 -176 -295 6 -83 33 -146 89 -207 55 -60 113 -89 219 -110
47 -9 120 -26 163 -37 187 -49 343 12 425 167 24 44 26 59 23 130 -4 99 -4
164 1 280 3 79 0 95 -21 135 -69 133 -213 210 -352 189z m160 -92 c24 -11 59
-36 79 -55 59 -59 65 -85 67 -297 3 -222 -5 -262 -66 -325 -81 -83 -164 -98
-310 -56 -46 13 -115 29 -154 36 -127 21 -188 62 -231 155 -17 35 -24 68 -24
110 1 111 40 162 185 238 33 18 96 66 140 108 44 42 91 82 105 89 61 32 135
31 209 -3z"/>
<path d="M1119 3232 c-161 -84 -157 -314 6 -391 100 -47 221 -12 278 81 57 93
46 192 -32 269 -74 75 -161 89 -252 41z"/>
<path d="M4890 3520 c-8 -5 -30 -10 -48 -10 -38 0 -98 -23 -125 -48 -25 -22
-57 -86 -57 -112 0 -11 -13 -39 -30 -61 -50 -70 -52 -144 -5 -213 14 -20 25
-47 25 -59 0 -38 37 -85 87 -110 26 -13 64 -32 83 -43 45 -24 146 -26 181 -2
22 14 28 14 52 2 41 -22 112 -28 161 -14 45 12 167 107 190 147 6 10 14 50 18
88 4 39 10 95 14 126 11 99 -36 182 -126 222 -25 11 -65 35 -89 54 -50 37 -71
42 -71 14 0 -25 -52 -77 -86 -85 -55 -14 -144 44 -144 95 0 21 -8 23 -30 9z
m33 -110 c59 -62 153 -62 215 0 l29 29 28 -29 c15 -16 41 -32 57 -35 43 -10
96 -61 108 -104 10 -37 3 -77 -19 -119 -8 -15 -8 -27 0 -46 14 -31 4 -75 -19
-83 -9 -3 -35 -26 -57 -51 -36 -40 -46 -45 -94 -50 -44 -4 -62 -1 -98 19 l-43
24 -43 -24 c-57 -31 -125 -26 -166 13 -15 14 -37 26 -49 26 -26 0 -56 42 -48
68 4 12 -4 32 -24 57 -43 54 -41 102 4 153 26 29 34 46 34 76 0 62 49 98 142
105 8 0 28 -12 43 -29z"/>
<path d="M6855 3512 c-32 -20 -63 -54 -134 -147 -59 -78 -147 -140 -233 -166
-72 -22 -91 -22 -364 -3 -85 6 -93 5 -113 -15 -32 -32 -27 -74 15 -121 20 -22
52 -49 71 -61 33 -20 36 -21 51 -4 16 16 15 18 -18 43 -51 39 -91 83 -87 96 4
12 41 12 258 1 113 -6 145 -5 195 10 114 32 201 100 306 238 66 86 92 104 133
90 l27 -9 -38 -24 c-28 -19 -52 -52 -93 -128 -65 -118 -120 -186 -187 -231
-67 -44 -130 -61 -274 -72 -191 -16 -205 -18 -229 -40 -27 -25 -27 -59 1 -94
28 -36 106 -85 134 -85 47 0 41 40 -9 58 -18 6 -48 25 -67 41 -53 44 -35 54
123 62 158 9 222 22 301 60 105 52 176 128 250 269 53 101 86 134 126 125 36
-8 57 16 35 39 -9 9 -28 16 -42 16 -22 0 -24 2 -13 16 34 39 -71 70 -125 36z"/>
<path d="M3365 3424 c-42 -21 -102 -81 -131 -131 -24 -40 -24 -43 -8 -67 9
-14 18 -26 20 -26 2 0 13 18 25 41 31 62 96 127 138 139 114 32 254 -173 255
-376 1 -59 -4 -80 -29 -129 -43 -83 -102 -120 -194 -120 -36 0 -78 4 -92 8
-21 7 -27 4 -37 -17 -11 -25 -10 -26 45 -42 131 -38 261 17 328 138 28 50 30
60 30 163 0 90 -4 123 -24 179 -51 148 -157 256 -250 256 -25 0 -59 -7 -76
-16z"/>
<path d="M7028 3385 c-31 -18 -57 -62 -88 -155 -74 -220 -191 -327 -400 -367
-161 -30 -218 -50 -235 -83 -26 -51 8 -98 94 -131 79 -30 250 -37 346 -15 188
44 355 174 433 336 96 198 95 332 0 403 -35 26 -114 32 -150 12z m108 -50 c60
-25 77 -91 49 -200 -54 -213 -203 -372 -410 -438 -137 -43 -358 -25 -411 34
-18 20 -18 21 -1 34 9 7 45 18 80 24 171 34 213 45 278 78 129 64 213 175 274
360 18 56 35 89 52 103 31 24 43 25 89 5z"/>
<path d="M2905 3342 c-52 -25 -78 -54 -109 -123 -47 -103 -60 -251 -31 -364
36 -141 149 -235 283 -235 111 0 210 61 258 156 15 30 19 60 19 135 0 93 -1
98 -44 184 -93 189 -263 300 -376 247z m133 -62 c64 -29 146 -120 193 -215 34
-69 41 -91 41 -146 0 -73 -19 -130 -60 -172 -94 -100 -244 -93 -336 14 -55 65
-69 121 -64 253 4 99 8 119 35 179 48 102 103 127 191 87z"/>
<path d="M4730 2882 c0 -18 61 -187 75 -208 45 -69 377 -74 437 -7 9 10 32 64
52 121 l35 102 -51 -29 c-28 -17 -53 -36 -54 -43 -9 -42 -30 -96 -39 -96 -12
-1 -8 32 9 73 l13 30 -56 1 c-31 1 -72 8 -91 16 -30 12 -38 12 -64 -1 -44 -22
-133 -18 -183 7 -23 12 -44 26 -48 32 -7 12 -35 14 -35 2z"/>
<path d="M3097 1984 c-4 -4 -7 -31 -7 -61 0 -33 -4 -53 -11 -53 -8 0 -10 -18
-5 -57 3 -32 3 -63 -2 -69 -4 -5 -29 -18 -55 -28 -90 -34 -129 -138 -88 -231
18 -42 19 -50 7 -64 -25 -29 -27 -56 -6 -96 19 -36 19 -40 3 -57 -21 -24 -20
-83 2 -108 15 -17 15 -20 -4 -51 -22 -35 -20 -71 6 -100 12 -14 11 -22 -8 -58
-21 -41 -21 -41 -2 -80 19 -38 19 -41 1 -88 -21 -55 -24 -163 -6 -181 17 -17
609 -17 626 0 18 18 14 136 -7 187 -17 43 -17 45 3 82 l21 39 -21 38 c-20 37
-20 38 -2 67 21 34 17 78 -8 106 -15 17 -15 20 5 45 27 34 27 64 0 98 -19 24
-20 29 -6 44 27 30 31 69 9 105 -19 33 -19 34 -1 68 25 47 24 106 -3 159 -19
36 -34 50 -80 73 -61 29 -79 58 -59 94 11 21 4 63 -10 63 -4 0 -9 26 -11 58
l-3 57 -136 3 c-74 1 -138 -1 -142 -4z m238 -267 c16 -33 29 -45 62 -57 61
-22 83 -46 83 -91 0 -73 14 -69 -245 -69 -257 0 -245 -3 -245 65 0 43 27 74
81 94 35 13 48 24 64 58 l20 42 80 0 80 0 20 -42z m-31 -432 c36 -74 35 -116
-5 -149 -43 -36 -91 -35 -130 3 -18 19 -29 40 -29 58 0 34 32 105 67 151 l25
33 23 -21 c12 -11 34 -45 49 -75z m142 -302 c3 -10 12 -31 20 -46 13 -26 12
-32 -3 -58 -15 -25 -16 -34 -4 -71 7 -24 15 -67 18 -95 l5 -53 -246 0 -246 0
0 40 c0 22 7 57 15 77 19 45 19 83 0 110 -13 19 -13 25 -1 50 8 15 17 36 20
46 5 15 24 17 211 17 187 0 206 -2 211 -17z"/>
<path d="M6450 1721 l0 -149 -29 -11 c-38 -16 -87 -68 -105 -113 -22 -53 -24
-829 -2 -847 9 -8 78 -11 227 -9 l214 3 3 414 c2 402 2 415 -19 457 -20 42
-89 104 -116 104 -10 0 -13 33 -13 150 l0 150 -80 0 -80 0 0 -149z m238 -476
l-3 -56 -153 -2 -152 -2 0 58 0 57 155 0 156 0 -3 -55z m-3 -235 l0 -145 -152
-3 -153 -3 0 151 0 151 153 -3 152 -3 0 -145z"/>
<path d="M1460 1551 c-76 -23 -152 -94 -165 -152 -4 -19 -18 -48 -31 -65 -33
-43 -30 -56 4 -16 26 31 29 32 60 21 106 -37 267 60 283 171 3 18 -3 27 -21
37 -27 14 -91 16 -130 4z m125 -31 c4 -6 -4 -29 -17 -52 -32 -59 -102 -101
-179 -106 -78 -6 -76 8 6 60 36 23 63 43 60 46 -2 2 -30 -10 -61 -27 -32 -17
-59 -29 -61 -27 -8 8 61 78 96 96 39 21 145 27 156 10z"/>
<path d="M1204 1494 c-4 -20 -4 -76 0 -125 8 -100 7 -101 -60 -73 -26 11 -58
15 -99 12 -51 -3 -70 -10 -111 -39 -69 -50 -115 -141 -122 -241 -13 -211 131
-439 277 -438 26 1 57 7 71 15 14 8 41 14 60 14 19 0 46 -6 60 -14 14 -8 45
-14 71 -15 157 -1 313 276 270 482 -7 34 -21 78 -31 97 -22 43 -83 103 -127
125 -40 20 -123 21 -170 1 -19 -8 -42 -15 -49 -15 -19 0 -18 61 2 156 8 42 14
77 12 79 -2 1 -13 6 -25 9 -19 6 -23 2 -29 -30z"/>
<path d="M4557 1327 c-85 -89 -120 -366 -71 -554 19 -73 59 -149 89 -169 38
-25 274 -15 370 16 148 47 258 125 306 214 l24 46 87 0 c49 0 88 -4 88 -8 0
-12 46 -32 71 -32 11 0 31 12 45 26 22 21 25 31 20 62 -7 46 -7 49 0 92 7 44
-17 77 -63 86 -27 5 -37 1 -63 -25 -29 -29 -36 -31 -103 -31 l-72 0 -28 53
c-51 99 -156 176 -302 224 -66 21 -105 27 -223 31 l-142 5 -33 -36z m91 -44
c85 -123 96 -427 20 -580 -32 -62 -53 -75 -78 -45 -57 69 -90 264 -71 413 13
100 41 184 71 217 27 28 35 28 58 -5z m883 -223 c23 -13 25 -43 4 -60 -8 -7
-15 -18 -15 -25 0 -7 7 -18 15 -25 21 -17 19 -47 -4 -60 -23 -12 -47 -5 -55
16 -4 11 -27 14 -96 14 l-90 0 0 45 0 45 90 0 c62 0 90 4 90 12 0 11 29 48 37
48 2 0 13 -5 24 -10z"/>
<path d="M4603 1072 c-18 -11 -33 -58 -33 -102 0 -72 37 -118 69 -86 22 23 27
126 7 164 -17 33 -23 37 -43 24z"/>
<path d="M6927 1313 c-3 -5 -8 -42 -12 -84 -15 -156 35 -299 118 -342 l38 -19
-3 -116 -3 -115 -65 -23 -65 -22 165 -1 165 0 -70 22 -70 23 -3 114 -2 115 37
20 c50 26 99 101 113 172 13 59 10 229 -3 251 -6 9 -52 12 -172 12 -90 0 -166
-3 -168 -7z m309 -69 c12 -63 -2 -185 -26 -237 -96 -205 -282 -52 -254 209 l6
64 134 0 133 0 7 -36z"/>
<path d="M6990 1113 c1 -113 78 -191 151 -153 29 16 59 85 62 143 l2 52 -107
3 -108 3 0 -48z"/>
</g>
</svg>
