<?xml version="1.0" encoding="iso-8859-1"?>
<!-- Generator: Adobe Illustrator 19.0.0, SVG Export Plug-In . SVG Version: 6.00 Build 0)  -->
<svg version="1.1" id="Capa_1" xmlns="http://www.w3.org/2000/svg" xmlns:xlink="http://www.w3.org/1999/xlink" x="0px" y="0px"
	 viewBox="0 0 510.963 510.963" style="enable-background:new 0 0 510.963 510.963;" xml:space="preserve">
<path style="fill:#FFD15C;" d="M417.995,359.496c-33.067,42.667-17.067,86.4-17.067,86.4c3.2,25.6,9.6,48,14.933,65.067h-224
	c4.267-68.267-44.8-60.8-44.8-60.8c-18.133,2.133-55.467,0-55.467,0c-32,3.2-19.2-41.6-19.2-41.6c4.267-12.8-8.533-25.6-8.533-25.6
	c-9.6-4.267,5.333-19.2,5.333-19.2c-22.4-6.4-3.2-33.067-3.2-33.067c5.333-20.267-22.4-22.4-22.4-22.4
	c-33.067-11.733,20.267-68.267,20.267-68.267c5.333-7.467,8.533-16,10.667-22.4c3.2-10.667,1.067-22.4-1.067-33.067
	c-4.267-19.2,3.2-37.333,3.2-37.333c12.8-112,108.8-134.4,108.8-134.4c145.067-38.4,216.533,19.2,240,44.8
	c6.4,6.4,8.533,10.667,8.533,10.667c3.2,4.267,6.4,8.533,9.6,12.8C534.262,215.496,417.995,359.496,417.995,359.496z"/>
<path style="fill:#FFFFFF;" d="M443.595,81.096l-52.267,70.4l-32-50.133l-46.933,71.467l-33.067-33.067l-54.4,57.6l52.267-97.067
	l26.667,34.133l50.133-69.333l35.2,45.867l37.333-54.4c6.4,6.4,8.533,10.667,8.533,10.667
	C438.262,72.563,441.462,76.83,443.595,81.096z"/>
<g>
</g>
<g>
</g>
<g>
</g>
<g>
</g>
<g>
</g>
<g>
</g>
<g>
</g>
<g>
</g>
<g>
</g>
<g>
</g>
<g>
</g>
<g>
</g>
<g>
</g>
<g>
</g>
<g>
</g>
</svg>
