<?xml version="1.0"?>
<svg xmlns="http://www.w3.org/2000/svg" xmlns:xlink="http://www.w3.org/1999/xlink" version="1.1" id="Capa_1" x="0px" y="0px" viewBox="0 0 313.383 313.383" style="enable-background:new 0 0 313.383 313.383;" xml:space="preserve" width="512px" height="512px"><g><g>
	<path d="M36.961,15c0.478,0,0.959,0.043,1.436,0.13l132.327,24.211c19.015,3.479,32.801,19.961,32.801,39.292   c0,47.337,0,126.845,0,140.682c0.507,16.326,5.08,19.171,9.373,24.277c25.496,30.326,57.712,31.244,65.833,33.628   c2.588,0.76,4.609,2.788,5.355,5.38c0.746,2.592,0.115,5.386-1.674,7.405l-0.019,0.021c-4.507,5.089-10.971,7.985-17.739,7.985   c-0.317,0-0.635-0.007-0.953-0.019l-46.641-1.876c-1.276-0.051-2.552-0.077-3.829-0.077c-4.886,0-9.768,0.376-14.6,1.127   l-5.707,0.886c-1.438,0.223-2.875,0.332-4.302,0.332c-8.938,0-17.452-4.284-22.763-11.687c-6.159-8.585-5.969-19.45-2.084-29.277   c1.022-2.585,2.995-10.708,2.995-10.708c4.999-17.873,4.218-36.869-2.23-54.272l-5.205-13.109   c-10.746-27.066-14.503-56.333-11.022-85.116l-110.838,7.191c-0.173,0.011-0.345,0.017-0.517,0.017   c-2.021,0-3.974-0.768-5.457-2.158c-1.61-1.509-2.523-3.617-2.523-5.823V22.981c0-2.368,1.052-4.614,2.871-6.13   C33.296,15.646,35.108,15,36.961,15 M99.792,50.16c3.26,0,6.128-2.368,6.656-5.689c0.584-3.68-1.925-7.137-5.605-7.722l-46.83-7.44   c-0.361-0.058-0.719-0.085-1.072-0.085c-3.26,0-6.122,2.371-6.65,5.69c-0.584,3.68,1.925,7.137,5.605,7.722l46.83,7.44   C99.083,50.133,99.44,50.16,99.792,50.16 M117.797,52.111c3.726,0,6.747-3.021,6.747-6.747c0-3.726-3.021-6.747-6.747-6.747   c-3.726,0-6.747,3.021-6.747,6.747C111.05,49.091,114.071,52.111,117.797,52.111 M36.961,0c-5.367,0-10.593,1.893-14.715,5.329   c-5.253,4.379-8.266,10.813-8.266,17.652V93.44c0,6.329,2.648,12.44,7.266,16.768c4.275,4.007,9.856,6.214,15.715,6.214   c0.494,0,0.995-0.016,1.489-0.048l93.675-6.077c-0.633,25.421,3.87,50.891,13.271,74.57l5.137,12.94   c5.332,14.486,5.952,29.997,1.793,44.866l-0.07,0.249l-0.061,0.251c-0.874,3.597-1.984,7.68-2.384,8.772   c-6.165,15.629-4.759,31.481,3.861,43.497c8.061,11.236,21.126,17.944,34.951,17.944c2.202,0,4.424-0.171,6.603-0.51l5.707-0.886   c4.056-0.63,8.194-0.949,12.299-0.949c1.071,0,2.156,0.022,3.225,0.065l46.641,1.876c0.52,0.021,1.039,0.031,1.556,0.031   c11.069,0,21.627-4.753,28.967-13.039c5.241-5.917,7.057-13.955,4.878-21.523c-2.177-7.562-7.988-13.402-15.542-15.621   c-2.071-0.608-4.317-1.012-7.162-1.524c-11.698-2.104-33.472-6.02-51.418-27.365c-0.692-0.823-1.351-1.557-1.932-2.205   c-2.489-2.774-3.637-4.052-3.922-12.659V78.633c0-26.535-18.968-49.265-45.101-54.047L41.097,0.375C39.736,0.126,38.344,0,36.961,0   L36.961,0z" data-original="#000000" class="" fill="#000000"/>
</g></g> </svg>
