<?xml version="1.0"?>
<svg xmlns="http://www.w3.org/2000/svg" xmlns:xlink="http://www.w3.org/1999/xlink" version="1.1" id="Capa_1" x="0px" y="0px" viewBox="0 0 507.312 507.312" style="enable-background:new 0 0 507.312 507.312;" xml:space="preserve" width="512px" height="512px" class=""><g><g>
	<g>
		<g>
			<path d="M413.144,120c0,56.768-74.496,109.616-118.896,136c-25.323,15.096-56.885,15.096-82.208,0     c-44.4-26.384-118.896-79.232-118.896-136V0h-32v120c0,42.704,28.064,81.2,64,113.024v131.68l-57.2,20.288l10.688,30.144     l78.512-27.84V258.384c12.8,9.232,25.92,17.68,38.512,25.184c35.421,21.099,79.555,21.099,114.976,0     c12.592-7.504,25.6-16,38.512-25.184v128.912l78.512,27.84l10.688-30.144l-57.2-20.288v-131.68     c35.936-31.824,64-70.32,64-113.024V0h-32V120z" data-original="#000000" class="active-path" data-old_color="#000000" fill="#FF001C"/>
			<rect x="462.306" y="400.11" transform="matrix(0.3345 -0.9424 0.9424 0.3345 -73.8209 727.6859)" width="32" height="32" data-original="#000000" class="active-path" data-old_color="#000000" fill="#FF001C"/>
			
				<rect x="12.523" y="400.443" transform="matrix(-0.3345 -0.9424 0.9424 -0.3345 -353.9111 581.933)" width="32" height="30.976" data-original="#000000" class="active-path" data-old_color="#000000" fill="#FF001C"/>
			<polygon points="289.832,484.688 312.456,507.312 339.768,480 429.144,480 429.144,448 326.52,448    " data-original="#000000" class="active-path" data-old_color="#000000" fill="#FF001C"/>
			<polygon points="77.144,448 77.144,480 166.52,480 193.832,507.312 216.456,484.688 179.768,448    " data-original="#000000" class="active-path" data-old_color="#000000" fill="#FF001C"/>
		</g>
	</g>
</g></g> </svg>
