<?xml version="1.0" encoding="iso-8859-1"?>
<!-- Generator: Adobe Illustrator 19.0.0, SVG Export Plug-In . SVG Version: 6.00 Build 0)  -->
<svg version="1.1" id="Capa_1" xmlns="http://www.w3.org/2000/svg" xmlns:xlink="http://www.w3.org/1999/xlink" x="0px" y="0px"
	 viewBox="0 0 512.002 512.002" style="enable-background:new 0 0 512.002 512.002;" xml:space="preserve">
<path style="fill:#FEEB70;" d="M475.61,512.001c-3.988,0-8.02-0.659-11.954-2.011l-102.293-35.149
	c-34.175,16.906-72.266,25.847-110.594,25.907c-0.128,0-0.265,0-0.394,0c-65.86,0.001-128.108-25.527-175.332-71.911
	C27.718,382.355,1.08,320.416,0.035,254.431c-0.547-34.554,5.816-68.117,18.913-99.757c12.632-30.517,30.931-57.884,54.388-81.34
	c23.456-23.456,50.823-41.755,81.34-54.388c31.64-13.097,65.187-19.466,99.757-18.912c65.985,1.046,127.924,27.685,174.405,75.01
	c46.473,47.316,72.011,109.724,71.909,175.727c-0.06,38.328-9.001,76.419-25.907,110.593l35.149,102.293l0,0
	c4.564,13.283,1.229,27.703-8.701,37.634C494.301,508.279,485.084,512.001,475.61,512.001z"/>
<path style="fill:#FCB629;" d="M474.841,361.363c16.906-34.173,25.847-72.265,25.907-110.592
	c0.102-66.002-25.435-128.41-71.909-175.727C382.357,27.719,320.418,1.081,254.433,0.034c-1.355-0.021-2.706-0.014-4.059-0.014
	v500.729c0.129,0,0.265,0,0.394,0c38.328-0.059,76.419-9,110.594-25.907l102.293,35.149c3.934,1.352,7.966,2.011,11.954,2.011
	c9.475,0,18.69-3.723,25.679-10.712c9.931-9.931,13.265-24.351,8.701-37.634L474.841,361.363z"/>
<g>
	<path style="fill:#FF52A8;" d="M247.911,393.104c7.939,0,15.545-6.981,15.178-15.178c-0.368-8.223-6.669-15.178-15.178-15.178
		c-7.939,0-15.545,6.981-15.178,15.178C233.101,386.149,239.402,393.104,247.911,393.104L247.911,393.104z"/>
	<path style="fill:#FF52A8;" d="M247.911,340.609c-8.382,0-15.178-6.796-15.178-15.178v-61.905c0-8.382,6.796-15.178,15.178-15.178
		c24.9,0,45.159-20.259,45.159-45.159s-20.259-45.159-45.159-45.159s-45.159,20.259-45.159,45.159
		c0,8.382-6.796,15.178-15.178,15.178s-15.178-6.796-15.178-15.178c0-41.639,33.876-75.515,75.515-75.515
		s75.515,33.876,75.515,75.515c0,36.442-25.947,66.937-60.337,73.982v48.259C263.089,333.814,256.293,340.609,247.911,340.609z"/>
</g>
<g>
	<path style="fill:#E53045;" d="M293.07,203.19c0,24.9-20.259,45.159-45.159,45.159v92.261c8.382,0,15.178-6.796,15.178-15.178
		v-48.259c34.389-7.045,60.337-37.54,60.337-73.982c0-41.639-33.876-75.515-75.515-75.515v30.356
		C272.811,158.031,293.07,178.289,293.07,203.19z"/>
	<path style="fill:#E53045;" d="M263.089,377.926c-0.368-8.223-6.669-15.178-15.178-15.178v30.356
		C255.85,393.104,263.456,386.122,263.089,377.926z"/>
</g>
<g>
</g>
<g>
</g>
<g>
</g>
<g>
</g>
<g>
</g>
<g>
</g>
<g>
</g>
<g>
</g>
<g>
</g>
<g>
</g>
<g>
</g>
<g>
</g>
<g>
</g>
<g>
</g>
<g>
</g>
</svg>
