<?xml version="1.0" encoding="iso-8859-1"?>
<!-- Generator: Adobe Illustrator 19.0.0, SVG Export Plug-In . SVG Version: 6.00 Build 0)  -->
<svg version="1.1" id="Capa_1" xmlns="http://www.w3.org/2000/svg" xmlns:xlink="http://www.w3.org/1999/xlink" x="0px" y="0px"
	 viewBox="0 0 469.333 469.333" style="enable-background:new 0 0 469.333 469.333;" xml:space="preserve">
<path style="fill:#303C42;" d="M424.883,271.281c1.065-5.288,1.784-10.368,1.784-15.281c0-47.063-38.271-85.333-85.333-85.333
	h-1.243c13.889-13.568,22.577-32.432,22.577-53.333c0-52.938-33.5-96-74.667-96c-5.896,0-10.667,4.771-10.667,10.667
	c0,29.417-28.708,53.333-64,53.333c-43.815,0-79.589,37.465-84.375,85.333H128c-47.063,0-85.333,38.271-85.333,85.333
	c0,4.913,0.719,9.993,1.784,15.281C17.803,288.359,0,318.066,0,352c0,52.938,43.063,96,96,96h277.333c52.938,0,96-43.063,96-96
	C469.333,318.066,451.53,288.359,424.883,271.281z"/>
<path style="fill:#8D6E63;" d="M373.333,426.667H96c-41.167,0-74.667-33.5-74.667-74.667s33.5-74.667,74.667-74.667h85.333
	c5.896,0,10.667-4.771,10.667-10.667c0-5.896-4.771-10.667-10.667-10.667H96c-11.1,0-21.599,2.268-31.525,5.749
	C64.258,259.807,64,257.85,64,256c0-35.292,28.708-64,64-64h53.333c5.896,0,10.667-4.771,10.667-10.667
	c0-5.896-4.771-10.667-10.667-10.667h-31.076c4.483-36.089,30.915-64,63.076-64c42.438,0,77.729-27.25,84.25-62.792
	c24.854,6.333,43.75,36.875,43.75,73.458c0,29.417-23.917,53.333-53.333,53.333h-42.667c-5.896,0-10.667,4.771-10.667,10.667
	c0,5.896,4.771,10.667,10.667,10.667h96c35.292,0,64,28.708,64,64c0,1.85-0.258,3.807-0.475,5.749
	c-9.926-3.48-20.424-5.749-31.525-5.749h-64c-5.896,0-10.667,4.771-10.667,10.667c0,5.896,4.771,10.667,10.667,10.667h64
	C414.5,277.333,448,310.833,448,352S414.5,426.667,373.333,426.667z"/>
<g>
	<path style="opacity:0.2;fill:#FFFFFF;enable-background:new    ;" d="M150.258,170.667h26.564
		c6.139-26.672,25.094-51.694,47.569-64.883c-3.647,0.418-7.281,0.883-11.057,0.883
		C181.173,106.667,154.741,134.578,150.258,170.667z"/>
	<path style="opacity:0.2;fill:#FFFFFF;enable-background:new    ;" d="M96,256c0-35.292,28.708-64,64-64h-32
		c-35.292,0-64,28.708-64,64c0,1.85,0.258,3.807,0.475,5.749C74.401,258.268,84.9,256,96,256z"/>
	<path style="opacity:0.2;fill:#FFFFFF;enable-background:new    ;" d="M53.333,352c0-41.167,33.5-74.667,74.667-74.667H96
		c-41.167,0-74.667,33.5-74.667,74.667s33.5,74.667,74.667,74.667h32C86.833,426.667,53.333,393.167,53.333,352z"/>
</g>
<path style="opacity:0.1;enable-background:new    ;" d="M298.667,192c35.292,0,64,28.708,64,64h10.667
	c11.1,0,21.599,2.268,31.525,5.749c0.217-1.941,0.475-3.898,0.475-5.749c0-35.292-28.708-64-64-64H298.667z"/>
<path style="opacity:0.1;enable-background:new    ;" d="M373.333,277.333h-42.667c41.167,0,74.667,33.5,74.667,74.667
	s-33.5,74.667-74.667,74.667h42.667C414.5,426.667,448,393.167,448,352S414.5,277.333,373.333,277.333z"/>
<path style="opacity:0.1;enable-background:new    ;" d="M298.667,117.333c0,29.417-23.917,53.333-53.333,53.333H288
	c29.417,0,53.333-23.917,53.333-53.333c0-36.583-18.896-67.125-43.75-73.458c-1.738,9.471-5.638,18.279-11.053,26.214
	C294.083,82.977,298.667,99.405,298.667,117.333z"/>
<linearGradient id="SVGID_1_" gradientUnits="userSpaceOnUse" x1="-63.7765" y1="615.7393" x2="-44.9042" y2="606.9372" gradientTransform="matrix(21.3333 0 0 -21.3333 1430.1112 13315.2227)">
	<stop  offset="0" style="stop-color:#FFFFFF;stop-opacity:0.2"/>
	<stop  offset="1" style="stop-color:#FFFFFF;stop-opacity:0"/>
</linearGradient>
<path style="fill:url(#SVGID_1_);" d="M424.883,271.281c1.065-5.288,1.784-10.368,1.784-15.281
	c0-47.063-38.271-85.333-85.333-85.333h-1.243c13.889-13.568,22.577-32.432,22.577-53.333c0-52.938-33.5-96-74.667-96
	c-5.896,0-10.667,4.771-10.667,10.667c0,29.417-28.708,53.333-64,53.333c-43.815,0-79.589,37.465-84.375,85.333H128
	c-47.063,0-85.333,38.271-85.333,85.333c0,4.913,0.719,9.993,1.784,15.281C17.803,288.359,0,318.066,0,352c0,52.938,43.063,96,96,96
	h277.333c52.938,0,96-43.063,96-96C469.333,318.066,451.53,288.359,424.883,271.281z"/>
<g>
</g>
<g>
</g>
<g>
</g>
<g>
</g>
<g>
</g>
<g>
</g>
<g>
</g>
<g>
</g>
<g>
</g>
<g>
</g>
<g>
</g>
<g>
</g>
<g>
</g>
<g>
</g>
<g>
</g>
</svg>
