<?xml version="1.0" encoding="iso-8859-1"?>
<!-- Generator: Adobe Illustrator 19.0.0, SVG Export Plug-In . SVG Version: 6.00 Build 0)  -->
<svg version="1.1" id="Layer_1" xmlns="http://www.w3.org/2000/svg" xmlns:xlink="http://www.w3.org/1999/xlink" x="0px" y="0px"
	 viewBox="0 0 511.996 511.996" style="enable-background:new 0 0 511.996 511.996;" xml:space="preserve">
<path style="fill:#EAC6BB;" d="M372.857,23.6C242.939-43.289,43.327,36.709,82.177,204.126l-19.476,23.562l-34.397,62.984
	l33.468,26.608l-1.391,44.733l13.375,19.171c0,0-15.929,59.843,8.421,68.327c45.413,15.843,98.888,8.046,98.888,8.046l2.664,54.438
	h225.925c0,0-22.359-112.842,11.593-160.762C455.199,303.296,565.947,123.003,372.857,23.6z"/>
<g style="opacity:0.2;">
	<path style="fill:#FFFFFF;" d="M159.738,457.558c0,0-8.343,1.219-21.226,1.719c7.875,0.297,15.117,0.234,21.312,0L159.738,457.558z
		"/>
	<path style="fill:#FFFFFF;" d="M372.857,23.6C338.577,5.96,299.468-1.462,261.149,0.241c31.304,1.406,62.444,8.984,90.365,23.359
		c193.104,99.404,82.357,279.696,48.405,327.634c-33.953,47.92-11.594,160.762-11.594,160.762h21.328
		c0,0-22.359-112.842,11.593-160.762C455.199,303.296,565.947,123.003,372.857,23.6z"/>
</g>
<path style="fill:#DBADA2;" d="M294.969,363.998v-1.344H60.834l12.922,18.53c0,0-0.273,1.016-0.688,2.812h200.573v127.998h21.327
	V383.997v-19.999H294.969z"/>
<polygon style="fill:#ED5564;" points="339.296,366.467 354.015,360.357 332.484,345.952 343.749,334.671 318.328,329.593 
	324.437,314.858 299,319.89 299,303.952 277.437,318.343 271.337,303.608 256.915,325.155 245.642,313.874 240.556,339.296 
	225.838,333.202 230.869,358.623 214.932,358.623 229.307,380.185 214.581,386.294 236.119,400.716 224.846,411.981 
	250.267,417.059 244.165,431.794 269.595,426.763 269.595,442.699 291.156,428.325 297.266,443.043 311.687,421.513 
	322.953,432.778 328.031,407.356 342.765,413.45 337.733,388.028 353.671,388.028 "/>
<circle style="fill:#DA4453;" cx="284.298" cy="373.327" r="31.999"/>
<g>
</g>
<g>
</g>
<g>
</g>
<g>
</g>
<g>
</g>
<g>
</g>
<g>
</g>
<g>
</g>
<g>
</g>
<g>
</g>
<g>
</g>
<g>
</g>
<g>
</g>
<g>
</g>
<g>
</g>
</svg>
