<?xml version="1.0"?>
<svg xmlns="http://www.w3.org/2000/svg" xmlns:xlink="http://www.w3.org/1999/xlink" version="1.1" id="Capa_1" x="0px" y="0px" viewBox="0 0 412.517 412.517" style="enable-background:new 0 0 412.517 412.517;" xml:space="preserve" width="512px" height="512px" class=""><g><g>
	<g>
		<path d="M338.646,17.784c0-5.213-6.625-7.598-13.105-9.243c-6.648-1.688-16.094-3.195-28.071-4.481    C273.082,1.442,240.69,0,206.258,0s-66.825,1.442-91.211,4.06c-11.978,1.286-21.423,2.794-28.072,4.482    c-6.48,1.645-13.105,4.029-13.105,9.242c0,0.022,0.005,0.042,0.005,0.064l34.837,365.024c0.12,1.26,0.83,2.389,1.914,3.044h0.001    c7.042,4.25,23.422,12.042,23.422,12.042c1.531,0.421,3.166-0.102,4.165-1.336c3.541-4.374,8.446-7.465,14.061-7.836    c12.967-0.858,22.223,6.683,22.223,17.741c0,2.208,1.788,3.998,3.996,4c0.001,0,18.602,1.99,27.764,1.99s27.613-1.99,27.76-1.99    h0.004c2.239,0,3.987-1.839,3.996-4.078c0.043-11.029,9.311-18.538,22.273-17.66c5.597,0.379,10.469,3.514,14.027,7.852    c1.014,1.236,2.67,1.753,4.212,1.304c0.5-0.146,16.305-7.77,23.367-12.029l0,0c1.085-0.654,1.795-1.778,1.915-3.039    C306.585,353.822,338.646,17.805,338.646,17.784z M320.191,127.176c-5.008-2.192-14.369-4.295-31.785-6.165    c-21.966-2.358-51.141-3.657-82.148-3.657c-31.008,0-60.182,1.299-82.148,3.657c-17.413,1.869-26.775,3.972-31.783,6.164    L82.642,25.771c1.401,0.471,2.869,0.884,4.333,1.256c6.648,1.688,16.093,3.195,28.071,4.481c24.387,2.618,56.779,4.06,91.211,4.06    s66.824-1.442,91.211-4.06c11.978-1.286,21.423-2.794,28.071-4.481c1.464-0.372,2.932-0.784,4.333-1.256L320.191,127.176z     M315.204,133.761c-10.698,3.541-46.515,8.408-108.946,8.408s-98.248-4.867-108.946-8.408    c10.699-3.541,46.515-8.408,108.946-8.408C268.69,125.354,304.506,130.221,315.204,133.761z M120.476,11.547    C143.993,9.26,174.457,8,206.258,8s62.265,1.26,85.781,3.547c22.798,2.217,32.434,4.733,36.399,6.237    c-3.966,1.504-13.602,4.02-36.399,6.237c-23.517,2.287-53.98,3.547-85.781,3.547s-62.265-1.26-85.782-3.547    c-22.797-2.217-32.433-4.733-36.399-6.237C88.043,16.28,97.679,13.764,120.476,11.547z M174.538,388.037    c-5.016-4.596-12.083-7.317-20.277-7.317c-5.794,0-11.301,1.729-15.924,4.896l-10.779-116.351    c-0.478-5.156,1.175-10.098,4.654-13.915c3.444-3.778,8.327-5.944,13.398-5.944c0.775,0,1.489,0.042,2.197,0.128    c15.406,1.833,26.999,14.916,26.966,30.43L174.538,388.037z M274.18,385.617c-4.624-3.167-10.132-4.896-15.925-4.896    c-8.194,0-15.262,2.721-20.277,7.317l-0.235-108.073c-0.033-15.515,11.561-28.598,26.981-30.433    c0.693-0.085,1.406-0.126,2.182-0.126c5.071,0,9.955,2.167,13.398,5.944c3.479,3.817,5.133,8.758,4.654,13.915L274.18,385.617z     M296.042,380.092c-4.544,2.67-9.233,5.133-14,7.388l10.883-117.476c0.688-7.425-1.695-14.543-6.709-20.043    c-4.956-5.437-11.995-8.555-19.311-8.555c-1.104,0-2.137,0.061-3.142,0.184c-19.437,2.313-34.063,18.818-34.021,38.392    l0.268,122.938c-15.646,2.115-31.859,2.115-47.504,0l0.267-122.939c0.042-19.574-14.584-36.078-34.006-38.39    c-1.02-0.125-2.053-0.186-3.157-0.186c-7.315,0-14.354,3.118-19.31,8.555c-5.014,5.5-7.396,12.618-6.708,20.042l10.884,117.484    c-4.775-2.26-9.46-4.73-13.993-7.395L93.636,140.88c5.274,2,14.474,3.915,30.474,5.632c21.965,2.358,51.14,3.657,82.148,3.657    c31.009,0,60.183-1.299,82.148-3.657c16.003-1.718,25.203-3.633,30.476-5.633L296.042,380.092z" data-original="#000000" class="active-path" data-old_color="#00A0FF" fill="#0054FF"/>
		<path d="M307.287,150.109c-2.216-0.202-4.151,1.407-4.359,3.606l-8.459,89.422c-0.208,2.199,1.406,4.15,3.605,4.359    c0.129,0.012,0.256,0.018,0.382,0.018c2.039,0,3.781-1.553,3.978-3.624l8.459-89.422    C311.102,152.269,309.487,150.317,307.287,150.109z" data-original="#000000" class="active-path" data-old_color="#00A0FF" fill="#0054FF"/>
		<path d="M317.819,38.7c-2.198-0.201-4.15,1.406-4.358,3.606l-6.907,73.093c-0.208,2.2,1.407,4.151,3.606,4.359    c0.128,0.012,0.255,0.018,0.381,0.018c2.039,0,3.781-1.553,3.978-3.624l6.907-73.093C321.633,40.859,320.018,38.908,317.819,38.7z    " data-original="#000000" class="active-path" data-old_color="#00A0FF" fill="#0054FF"/>
		<path d="M136.083,155.576c-6.758,0-12.256,5.498-12.256,12.256s5.498,12.256,12.256,12.256c6.758,0,12.256-5.498,12.256-12.256    S142.841,155.576,136.083,155.576z M136.083,172.088c-2.347,0-4.256-1.909-4.256-4.256s1.909-4.256,4.256-4.256    s4.256,1.909,4.256,4.256S138.43,172.088,136.083,172.088z" data-original="#000000" class="active-path" data-old_color="#00A0FF" fill="#0054FF"/>
		<path d="M192.499,181.721c-8.275,0-15.008,6.732-15.008,15.008s6.733,15.008,15.008,15.008s15.008-6.733,15.008-15.008    S200.775,181.721,192.499,181.721z M192.499,203.737c-3.864,0-7.008-3.144-7.008-7.008s3.144-7.008,7.008-7.008    s7.008,3.144,7.008,7.008S196.364,203.737,192.499,203.737z" data-original="#000000" class="active-path" data-old_color="#00A0FF" fill="#0054FF"/>
		<path d="M274.371,159.705c-6.378,0-11.567,5.189-11.567,11.568s5.189,11.568,11.567,11.568c6.379,0,11.568-5.189,11.568-11.568    S280.75,159.705,274.371,159.705z M274.371,174.84c-1.967,0-3.567-1.601-3.567-3.568s1.601-3.568,3.567-3.568    c1.968,0,3.568,1.601,3.568,3.568S276.339,174.84,274.371,174.84z" data-original="#000000" class="active-path" data-old_color="#00A0FF" fill="#0054FF"/>
	</g>
</g></g> </svg>
