<?xml version="1.0" encoding="iso-8859-1"?>
<!-- Generator: Adobe Illustrator 19.0.0, SVG Export Plug-In . SVG Version: 6.00 Build 0)  -->
<svg version="1.1" id="Capa_1" xmlns="http://www.w3.org/2000/svg" xmlns:xlink="http://www.w3.org/1999/xlink" x="0px" y="0px"
	 viewBox="0 0 512 512" style="enable-background:new 0 0 512 512;" xml:space="preserve">
<g>
	<g transform="translate(1 1)">
		<rect x="152.6" y="24.6" style="fill:#7FACFA;" width="204.8" height="187.733"/>
		
			<linearGradient id="SVGID_1_" gradientUnits="userSpaceOnUse" x1="-49.7379" y1="651.2478" x2="-48.714" y2="650.2705" gradientTransform="matrix(179.2 0 0 -187.7333 9063.5908 122287.7578)">
			<stop  offset="0" style="stop-color:#D4E1F4"/>
			<stop  offset="0.1717" style="stop-color:#D4E1F4"/>
			<stop  offset="0.2" style="stop-color:#D4E1F4"/>
			<stop  offset="0.2001" style="stop-color:#DAE4F4"/>
			<stop  offset="0.2007" style="stop-color:#EBEBF4"/>
			<stop  offset="0.2014" style="stop-color:#F6F1F4"/>
			<stop  offset="0.2023" style="stop-color:#FDF4F4"/>
			<stop  offset="0.205" style="stop-color:#FFF5F4"/>
			<stop  offset="0.2522" style="stop-color:#FFF5F4"/>
			<stop  offset="0.26" style="stop-color:#FFF5F4"/>
			<stop  offset="0.26" style="stop-color:#D4E1F4"/>
			<stop  offset="0.3974" style="stop-color:#D4E1F4"/>
			<stop  offset="0.42" style="stop-color:#D4E1F4"/>
			<stop  offset="0.4201" style="stop-color:#DAE4F4"/>
			<stop  offset="0.4207" style="stop-color:#EBEBF4"/>
			<stop  offset="0.4214" style="stop-color:#F6F1F4"/>
			<stop  offset="0.4223" style="stop-color:#FDF4F4"/>
			<stop  offset="0.425" style="stop-color:#FFF5F4"/>
			<stop  offset="0.4894" style="stop-color:#FFF5F4"/>
			<stop  offset="0.5" style="stop-color:#FFF5F4"/>
			<stop  offset="0.5" style="stop-color:#F9F2F4"/>
			<stop  offset="0.5001" style="stop-color:#E8EBF4"/>
			<stop  offset="0.5003" style="stop-color:#DDE5F4"/>
			<stop  offset="0.5005" style="stop-color:#D6E2F4"/>
			<stop  offset="0.501" style="stop-color:#D4E1F4"/>
			<stop  offset="0.7062" style="stop-color:#D4E1F4"/>
			<stop  offset="0.74" style="stop-color:#D4E1F4"/>
			<stop  offset="0.741" style="stop-color:#FFF5F4"/>
			<stop  offset="0.8346" style="stop-color:#FFF5F4"/>
			<stop  offset="0.85" style="stop-color:#FFF5F4"/>
			<stop  offset="0.851" style="stop-color:#D4E1F4"/>
		</linearGradient>
		<rect x="152.6" y="24.6" style="fill:url(#SVGID_1_);" width="179.2" height="187.733"/>
		<path style="fill:#7FACFA;" d="M314.733,344.771V485.4c0,9.426-7.641,17.067-17.067,17.067h-85.333
			c-9.426,0-17.067-7.641-17.067-17.067V344.771H314.733z"/>
		<path style="fill:#E3E7F2;" d="M289.133,344.771V485.4c0.883,8.38-5.059,15.942-13.41,17.067h-67.048
			c-8.351-1.124-14.293-8.687-13.41-17.067V344.771H289.133z"/>
		<path style="fill:#7FACFA;" d="M374.467,263.533c0,51.841-53.487,93.867-119.467,93.867s-119.467-42.026-119.467-93.867v-42.667
			h238.933V263.533z"/>
		<path style="fill:#E3E7F2;" d="M348.867,263.533c0,51.841-47.756,93.867-106.667,93.867s-106.667-42.026-106.667-93.867v-42.667
			h213.333V263.533z"/>
		<g>
			<path style="fill:#7FACFA;" d="M400.067,246.467c-0.028,9.414-7.653,17.039-17.067,17.067H127
				c-9.426,0-17.067-7.641-17.067-17.067c0-9.426,7.641-17.067,17.067-17.067c-9.426,0-17.067-7.641-17.067-17.067
				c0-9.426,7.641-17.067,17.067-17.067h256c9.426,0,17.067,7.641,17.067,17.067c0,9.426-7.641,17.067-17.067,17.067
				C392.414,229.428,400.039,237.053,400.067,246.467z"/>
			<path style="fill:#7FACFA;" d="M127,229.4h256c9.426,0,17.067,7.641,17.067,17.067l0,0c0,9.426-7.641,17.067-17.067,17.067H127
				c-9.426,0-17.067-7.641-17.067-17.067l0,0C109.933,237.041,117.574,229.4,127,229.4z"/>
			<path style="fill:#7FACFA;" d="M152.6,7.533h204.8c9.426,0,17.067,7.641,17.067,17.067l0,0c0,9.426-7.641,17.067-17.067,17.067
				H152.6c-9.426,0-17.067-7.641-17.067-17.067l0,0C135.533,15.174,143.174,7.533,152.6,7.533z"/>
		</g>
		<g>
			<path style="fill:#E3E7F2;" d="M374.467,246.467c0.369,8.993-6.572,16.606-15.561,17.067H125.494
				c-8.817-0.816-15.561-8.212-15.561-17.067c0-8.854,6.744-16.251,15.561-17.067c-8.817-0.816-15.561-8.212-15.561-17.067
				c0-8.854,6.744-16.251,15.561-17.067h233.412c8.817,0.816,15.561,8.212,15.561,17.067c0,8.854-6.744,16.251-15.561,17.067
				C367.895,229.86,374.836,237.474,374.467,246.467z"/>
			<path style="fill:#E3E7F2;" d="M127,229.4h230.4c9.426,0,17.067,7.641,17.067,17.067l0,0c0,9.426-7.641,17.067-17.067,17.067H127
				c-9.426,0-17.067-7.641-17.067-17.067l0,0C109.933,237.041,117.574,229.4,127,229.4z"/>
			<path style="fill:#E3E7F2;" d="M150.339,7.533h183.714c9.426,0,17.067,7.641,17.067,17.067l0,0
				c0,9.426-7.641,17.067-17.067,17.067H150.339c-9.426,0-17.067-7.641-17.067-17.067l0,0
				C133.272,15.174,140.913,7.533,150.339,7.533z"/>
		</g>
	</g>
	<g transform="translate(0 1)">
		<path style="fill:#FFFFFF;" d="M226.731,502.467h-25.6c-8.345-1.132-14.28-8.691-13.398-17.067V347.757
			C152.405,332.397,128,300.568,128,263.533h-10.069c-8.804-0.831-15.532-8.223-15.532-17.067c0-8.843,6.727-16.236,15.532-17.067
			c-8.804-0.831-15.532-8.223-15.532-17.067s6.727-16.236,15.532-17.067h25.6C134.727,196.098,128,203.49,128,212.333
			s6.727,16.236,15.532,17.067c-8.804,0.831-15.532,8.223-15.532,17.067c0,8.843,6.727,16.236,15.532,17.067H153.6
			c0,37.035,24.405,68.864,59.733,84.224V485.4C212.451,493.775,218.386,501.335,226.731,502.467z"/>
		<path style="fill:#FFFFFF;" d="M125.781,24.6c-0.001-4.527,1.796-8.868,4.997-12.069c3.201-3.201,7.543-4.999,12.069-4.997h25.429
			c-9.392,0.094-16.943,7.759-16.896,17.152c0.047,9.392,7.674,16.982,17.067,16.982h2.219v153.6h-25.6v-153.6h-2.219
			c-4.527,0.001-8.868-1.797-12.069-4.997C127.578,33.468,125.78,29.127,125.781,24.6z"/>
	</g>
	<g>
		<polygon style="fill:#FFFFFF;" points="162.133,42.667 162.133,153.6 162.133,196.267 145.067,196.267 145.067,153.6 
			145.067,42.667 		"/>
		<g>
			<path style="fill:#428DFF;" d="M153.6,119.467c3.45-0.014,6.556-2.096,7.879-5.282c1.323-3.187,0.606-6.856-1.82-9.31
				l-1.279-1.025c-0.476-0.324-0.993-0.583-1.538-0.771c-0.484-0.246-1.002-0.417-1.538-0.508c-0.564-0.096-1.133-0.153-1.704-0.171
				c-2.259,0.031-4.423,0.915-6.059,2.475c-2.07,1.994-2.979,4.908-2.409,7.726c0.57,2.818,2.539,5.149,5.222,6.183
				C151.381,119.221,152.484,119.453,153.6,119.467z"/>
			<path style="fill:#428DFF;" d="M384,187.733h-17.067v-102.4h25.6c4.713,0,8.533-3.821,8.533-8.533
				c0-4.713-3.821-8.533-8.533-8.533h-25.6V49.628c11.753-4.132,18.808-16.141,16.697-28.418C381.52,8.932,370.858-0.031,358.4,0
				H153.6c-12.458-0.031-23.119,8.931-25.23,21.209c-2.111,12.277,4.945,24.286,16.697,28.418V76.8c0,4.713,3.821,8.533,8.533,8.533
				s8.533-3.821,8.533-8.533V51.2h187.733v136.533H162.133v-42.667c0-4.713-3.821-8.533-8.533-8.533s-8.533,3.821-8.533,8.533
				v42.667H128c-10.117-0.044-19.303,5.899-23.408,15.146c-4.105,9.247-2.353,20.046,4.466,27.521
				c-6.819,7.474-8.571,18.274-4.466,27.521c4.105,9.247,13.291,15.19,23.408,15.146h0.54c3.407,32.804,26.2,61.205,59.194,77.936
				V486.4c0.015,14.132,11.468,25.585,25.6,25.6h85.333c14.132-0.015,25.585-11.468,25.6-25.6V351.003
				c32.994-16.731,55.786-45.132,59.194-77.936H384c10.117,0.044,19.303-5.899,23.408-15.146c4.105-9.247,2.353-20.046-4.466-27.521
				c6.819-7.474,8.571-18.274,4.466-27.521C403.303,193.633,394.117,187.689,384,187.733z M153.6,34.133
				c-4.713,0-8.533-3.821-8.533-8.533s3.821-8.533,8.533-8.533h204.8c4.713,0,8.533,3.821,8.533,8.533s-3.821,8.533-8.533,8.533
				H153.6z M128,204.8h256c4.713,0,8.533,3.821,8.533,8.533c0,4.713-3.82,8.533-8.533,8.533H128c-4.713,0-8.533-3.821-8.533-8.533
				C119.467,208.621,123.287,204.8,128,204.8z M307.2,486.4c-0.005,4.711-3.822,8.529-8.533,8.533h-85.333
				c-4.711-0.005-8.529-3.822-8.533-8.533V358.325c33.168,11.478,69.232,11.478,102.4,0V486.4z M312.415,337.907l-0.009,0.004
				c-35.914,15.94-76.896,15.94-112.811,0.001l-0.011-0.005c-29.577-13.509-50.387-37.231-53.967-64.841h220.767
				C362.803,300.676,341.993,324.399,312.415,337.907z M384,256H128c-4.713,0-8.533-3.821-8.533-8.533
				c0-4.713,3.821-8.533,8.533-8.533h256c4.713,0,8.533,3.821,8.533,8.533C392.533,252.18,388.713,256,384,256z"/>
		</g>
	</g>
</g>
<g>
</g>
<g>
</g>
<g>
</g>
<g>
</g>
<g>
</g>
<g>
</g>
<g>
</g>
<g>
</g>
<g>
</g>
<g>
</g>
<g>
</g>
<g>
</g>
<g>
</g>
<g>
</g>
<g>
</g>
</svg>
