<?xml version="1.0" standalone="no"?>
<!DOCTYPE svg PUBLIC "-//W3C//DTD SVG 20010904//EN"
 "http://www.w3.org/TR/2001/REC-SVG-20010904/DTD/svg10.dtd">
<svg version="1.0" xmlns="http://www.w3.org/2000/svg"
 width="800.000000pt" height="576.000000pt" viewBox="0 0 800.000000 576.000000"
 preserveAspectRatio="xMidYMid meet">
<metadata>
Created by potrace 1.15, written by Peter Selinger 2001-2017
</metadata>
<g transform="translate(0.000000,576.000000) scale(0.100000,-0.100000)"
fill="#000000" stroke="none">
<path d="M7115 4570 c-187 -27 -359 -51 -382 -55 -31 -4 -43 -11 -43 -23 0
-14 -1 -14 -12 0 -12 14 -64 8 -508 -55 -272 -39 -496 -74 -498 -78 -2 -4 -11
-5 -20 -3 -9 3 -132 -11 -272 -31 -140 -20 -307 -43 -370 -52 -236 -31 -255
-36 -252 -60 2 -12 -2 -24 -8 -28 -5 -3 -10 0 -10 7 0 9 -3 9 -10 -2 -9 -13
-10 -13 -10 0 0 9 5 21 12 28 18 18 -9 16 -312 -28 -151 -22 -293 -42 -315
-45 -104 -12 -916 -127 -964 -137 -36 -7 -49 -13 -40 -18 7 -5 17 -6 21 -4 4
3 8 0 8 -7 0 -7 -10 -9 -25 -7 -13 3 -26 0 -29 -6 -2 -6 -5 -1 -5 12 -1 12 -2
22 -3 22 -3 0 -416 -59 -453 -65 -74 -11 -470 -65 -479 -65 -4 0 -5 -17 -2
-37 l6 -38 -14 33 c-19 41 -23 40 -18 -3 3 -22 0 -35 -7 -35 -7 0 -9 -5 -5
-12 4 -6 3 -8 -3 -5 -6 4 -13 25 -17 48 -6 39 -8 41 -34 35 -26 -6 -55 -10
-104 -14 -21 -2 -23 -8 -26 -72 -3 -80 -6 -79 104 -60 96 17 102 19 107 38 4
15 5 15 6 -2 1 -17 7 -18 54 -12 110 14 117 16 117 42 0 24 20 35 20 12 1 -7
9 -3 20 10 20 25 35 14 25 -18 -5 -16 -2 -20 15 -20 11 0 23 7 26 15 4 10 11
12 18 7 6 -4 18 -8 26 -7 8 1 23 3 33 3 12 2 17 11 17 32 0 17 5 30 10 30 6 0
10 -12 10 -26 0 -26 0 -26 66 -20 37 4 72 13 81 21 17 18 30 19 35 4 3 -8 42
-6 136 7 125 17 132 19 132 40 0 18 5 22 21 19 30 -6 36 -14 19 -26 -17 -11
-35 -13 377 45 167 23 306 45 309 49 4 4 1 14 -7 24 -12 15 -12 16 4 10 10 -4
23 -7 28 -7 4 0 6 -7 3 -15 -7 -17 21 -21 31 -5 3 5 12 7 20 3 9 -3 15 1 15 8
0 10 3 10 8 3 5 -8 27 -8 78 -1 l71 9 -8 42 c-11 56 -11 88 0 81 5 -3 13 -30
16 -60 7 -54 8 -55 39 -55 18 0 36 3 39 6 4 4 30 8 59 10 29 2 181 22 338 44
157 23 301 44 320 46 263 34 1264 176 1292 184 20 6 43 9 50 8 13 -3 14 5 4
32 -6 17 29 68 40 58 4 -4 2 -13 -4 -20 -5 -7 -8 -26 -5 -41 5 -26 9 -28 37
-23 17 3 52 8 79 12 26 3 47 7 47 8 0 0 -4 16 -10 34 -8 28 -6 37 11 55 20 22
20 22 32 2 16 -27 26 -75 16 -75 -4 0 -13 8 -18 18 -6 9 -10 13 -11 7 0 -41 1
-41 532 34 282 39 534 74 559 77 l45 6 18 -118 c10 -66 18 -127 18 -138 -1
-10 8 -20 19 -23 10 -3 19 -12 19 -20 0 -9 -6 -13 -15 -9 -10 4 -15 -1 -15
-14 0 -11 4 -20 8 -20 5 0 14 -10 20 -22 9 -21 11 -18 13 22 3 58 3 62 -5 80
-4 9 2 25 15 39 21 22 38 23 24 1 -4 -7 -9 -44 -10 -82 -3 -56 -8 -75 -24 -92
-20 -19 -21 -19 -21 -2 0 11 -3 17 -6 14 -8 -9 17 -128 27 -123 4 3 7 -29 7
-72 -2 -83 86 -735 102 -765 6 -10 10 -31 10 -47 0 -22 6 -30 24 -35 36 -9 41
-34 8 -43 l-28 -8 26 -180 c14 -99 31 -191 38 -204 9 -15 10 -27 4 -33 -6 -6
-7 -22 -3 -37 3 -14 6 -42 6 -61 l0 -34 -165 -23 c-91 -13 -406 -57 -700 -98
-294 -42 -587 -82 -650 -91 -63 -8 -123 -19 -132 -25 -10 -5 -25 -9 -33 -9 -8
0 -15 -6 -15 -12 0 -8 -4 -7 -10 3 -8 14 -18 14 -92 2 -46 -7 -119 -18 -163
-23 -143 -18 -215 -32 -210 -40 3 -5 1 -11 -4 -14 -5 -3 -11 0 -14 8 -3 8 -15
12 -29 10 -13 -2 -250 -36 -528 -74 -934 -130 -1145 -161 -1151 -172 -4 -7 -8
-6 -10 1 -3 7 -11 10 -20 6 -10 -4 -14 -16 -11 -40 4 -32 2 -35 -19 -32 -13 2
-28 14 -34 26 -5 12 -19 24 -30 26 -11 3 -234 -26 -495 -63 l-475 -67 0 -25
c0 -18 -6 -26 -23 -28 -12 -2 -20 -8 -17 -13 4 -5 1 -9 -5 -9 -15 0 -2 41 19
57 11 8 12 12 3 13 -6 0 -236 -31 -509 -70 -469 -66 -512 -75 -513 -102 0 -5
-5 -8 -11 -8 -8 0 -7 5 1 15 7 9 11 17 9 19 -4 3 -268 -32 -584 -79 -60 -9
-127 -18 -147 -21 -23 -4 -39 -12 -43 -23 -6 -21 -44 -25 -52 -5 -5 15 -43 20
-43 5 0 -4 -10 -7 -22 -4 -25 4 -183 -20 -210 -32 -15 -6 -18 -2 -18 19 0 14
-18 153 -40 308 -22 156 -40 284 -40 285 0 1 -7 0 -15 -3 -20 -8 -48 3 -40 16
5 8 11 8 19 1 27 -23 33 8 19 102 -15 104 -20 142 -29 210 -4 36 -10 47 -20
43 -8 -3 -14 1 -14 9 0 7 -9 17 -20 20 -11 3 -20 9 -21 13 0 4 -2 28 -3 54 -1
37 2 48 16 51 19 5 25 -8 8 -18 -18 -11 -10 -51 14 -74 l24 -23 -3 34 c-6 67
-17 107 -31 112 -19 7 -18 26 1 26 8 0 15 6 15 14 0 7 -7 19 -15 26 -18 15
-20 35 -3 24 8 -5 9 2 5 26 -4 18 -7 36 -7 41 0 5 -7 9 -15 9 -13 0 -13 3 -3
20 10 16 6 63 -21 257 -18 131 -37 256 -43 278 -5 22 -10 60 -10 85 0 29 -2
35 -5 18 -3 -17 -11 -28 -20 -28 -13 0 -15 9 -9 55 4 33 2 64 -4 75 -7 14 -7
20 0 20 5 0 10 7 10 15 0 9 9 15 23 15 14 0 18 -3 10 -8 -7 -4 -11 -26 -10
-51 l1 -42 36 6 c19 4 37 11 38 16 3 6 8 6 15 0 7 -5 24 -7 39 -4 24 4 28 10
28 37 0 17 -7 40 -15 50 -8 11 -12 29 -9 39 5 16 2 18 -23 13 -15 -3 -50 -8
-78 -12 -129 -16 -175 -50 -175 -129 0 -47 12 -61 49 -56 13 1 21 -2 17 -7 -3
-5 -18 -8 -34 -6 l-28 3 23 -157 c39 -273 43 -291 64 -302 23 -13 25 -30 4
-30 -20 0 -20 -12 17 -267 28 -202 33 -222 53 -233 24 -13 52 -56 43 -65 -3
-3 -18 -1 -33 5 -26 10 -27 9 -21 -12 3 -13 11 -63 17 -113 10 -79 28 -146 29
-107 0 7 5 10 11 7 7 -5 5 -13 -5 -24 -15 -16 -13 -39 19 -257 19 -131 37
-255 39 -274 5 -37 19 -138 22 -155 1 -5 2 -18 3 -27 0 -10 8 -18 17 -18 11 0
14 6 9 20 -4 11 -2 20 4 20 11 0 15 -14 11 -39 -1 -8 4 -18 12 -22 10 -6 10
-11 1 -20 -8 -8 -13 -6 -18 10 -3 12 -11 21 -16 21 -16 0 -10 -16 16 -44 26
-28 45 -34 45 -13 1 7 6 5 14 -6 17 -23 43 -22 51 2 8 27 33 34 44 12 7 -12
20 -17 38 -16 15 1 43 3 61 3 34 2 44 26 19 51 -10 11 -9 13 3 9 8 -3 16 -14
18 -26 4 -26 34 -29 76 -7 15 8 32 12 37 9 5 -3 22 4 37 15 26 18 30 19 45 4
14 -14 25 -15 94 -4 43 6 94 13 113 15 163 17 296 40 307 53 6 8 25 17 42 19
25 4 30 2 25 -10 -5 -13 -1 -14 26 -6 18 5 35 9 39 8 3 0 21 0 40 1 24 1 32 5
28 15 -3 8 1 17 9 20 8 3 14 -1 14 -10 0 -14 9 -15 63 -9 34 4 64 11 65 16 2
5 8 6 13 3 15 -9 833 108 841 120 4 6 12 18 17 26 6 8 13 11 17 7 4 -3 1 -13
-6 -22 -16 -19 -26 -20 180 10 96 14 193 28 215 31 115 14 402 56 415 60 8 3
38 7 67 9 88 6 93 9 93 69 0 45 3 52 20 52 13 0 16 -4 10 -10 -17 -17 -11 -62
11 -82 22 -19 22 -19 15 6 -7 24 -6 24 8 6 15 -19 29 -17 598 63 321 45 585
86 586 92 3 6 9 6 17 -1 19 -16 27 3 11 25 -12 16 -10 22 12 42 14 13 28 21
31 18 3 -4 0 -9 -6 -13 -17 -11 -4 -72 16 -72 10 0 21 3 24 7 4 3 25 7 47 8
53 3 72 19 60 51 -8 20 -6 30 11 47 20 22 21 22 35 3 8 -11 14 -29 14 -40 0
-12 5 -28 10 -36 8 -13 15 -12 51 9 32 18 43 20 49 10 7 -10 50 -7 212 15 111
16 221 33 243 39 22 5 51 9 65 8 14 0 50 3 80 9 30 5 74 12 98 14 72 8 102 17
102 31 0 8 5 17 11 21 8 4 9 -1 4 -16 -7 -21 -5 -23 26 -18 19 3 171 25 339
48 168 23 312 44 320 47 8 4 19 5 24 4 4 -1 44 3 87 10 70 10 79 14 79 33 1
20 1 20 15 2 14 -19 18 -18 177 3 89 13 170 27 179 31 9 5 19 7 21 4 11 -10
263 29 274 42 6 8 14 11 17 8 10 -11 102 -5 105 6 2 5 8 8 13 5 5 -4 6 0 3 8
-7 19 16 34 26 17 5 -9 12 -5 24 11 20 29 21 45 1 29 -13 -10 -15 -9 -15 8 0
15 5 20 15 16 12 -5 15 2 15 34 0 31 -7 46 -31 70 -28 27 -30 34 -24 71 4 23
11 43 15 46 10 6 4 119 -9 185 -6 25 -12 70 -16 100 -3 30 -12 96 -19 145 -8
50 -19 126 -25 170 -18 139 -131 939 -136 960 -2 11 -4 36 -6 55 -1 24 -3 28
-6 13 -2 -13 -9 -23 -14 -23 -13 0 -11 37 2 46 8 4 9 24 5 58 -4 28 -9 71 -12
96 -3 25 -12 55 -20 67 -8 12 -14 31 -14 41 0 10 -6 27 -14 38 -14 18 -15 18
-26 -10 -6 -16 -8 -37 -5 -47 8 -25 -1 -24 -15 0 -7 14 -7 28 0 47 6 15 9 28
8 30 -14 13 -100 6 -393 -36z"/>
<path d="M7110 4279 c-69 -10 -144 -21 -167 -24 -24 -4 -42 -9 -42 -13 1 -4 1
-15 0 -24 -2 -27 -21 -22 -21 5 l0 23 -282 -39 c-156 -22 -287 -43 -291 -47
-12 -10 12 -163 27 -172 7 -5 7 -8 0 -8 -7 0 -7 -23 0 -77 9 -61 15 -78 29
-81 12 -3 17 3 17 21 0 19 7 27 27 32 26 6 26 8 10 19 -36 27 -15 52 26 31 15
-8 27 -10 27 -4 0 5 5 9 10 9 6 0 10 -20 10 -45 0 -38 -3 -44 -19 -42 -10 2
-25 8 -33 15 -11 9 -17 9 -26 0 -18 -18 -15 -40 6 -34 29 8 193 28 197 24 2
-2 29 -186 60 -408 31 -223 58 -412 61 -420 3 -8 7 -33 9 -55 3 -55 66 -509
71 -514 4 -5 342 39 364 47 8 3 19 4 24 3 5 -1 22 1 38 5 28 5 30 9 24 38 -7
31 -25 163 -51 356 -8 58 -41 300 -75 539 -34 239 -60 445 -58 459 2 19 9 26
28 27 82 5 230 30 230 39 0 6 -10 84 -22 174 l-22 162 -31 -1 c-16 -1 -86 -10
-155 -20z"/>
<path d="M6015 4124 c-82 -12 -152 -23 -155 -24 -3 -1 -15 -1 -27 0 -13 1 -23
-2 -23 -6 0 -31 24 -134 31 -134 5 0 9 -5 9 -11 0 -5 -5 -7 -11 -3 -8 4 -9 -3
-5 -22 6 -31 52 -352 67 -469 4 -38 11 -86 14 -105 5 -33 4 -34 -10 -16 -15
20 -15 20 -15 0 -1 -18 -1 -18 -11 0 -8 13 -8 20 0 25 7 5 -48 127 -155 346
-90 187 -168 343 -172 347 -13 13 -248 -27 -267 -45 -9 -10 -31 -25 -48 -34
-32 -16 -32 -15 -14 4 9 11 17 23 17 26 0 10 -58 9 -63 0 -2 -5 27 -224 65
-488 38 -264 72 -500 74 -525 7 -60 93 -677 100 -713 6 -27 8 -28 47 -22 23 4
46 11 51 15 5 5 14 6 21 3 8 -3 15 5 18 19 l4 23 2 -22 c1 -24 15 -30 26 -13
4 6 11 7 17 4 5 -3 52 -1 103 6 94 12 94 13 90 39 -3 14 -25 175 -50 356 -25
182 -47 346 -50 365 -5 33 -3 31 24 -20 15 -30 93 -197 171 -370 79 -173 145
-317 147 -319 3 -5 246 28 252 35 2 2 -1 14 -7 26 -6 13 -11 17 -11 10 -1 -7
-5 -10 -11 -7 -15 10 -12 25 6 25 19 0 44 -24 44 -42 0 -12 12 -12 64 -4 62 9
65 10 60 35 -2 14 -23 157 -45 316 -22 160 -56 399 -75 532 -19 134 -34 245
-34 249 0 3 -9 2 -20 -1 -16 -5 -20 -2 -20 14 0 12 7 21 15 21 17 0 18 15 9
83 -5 31 -12 47 -24 50 -13 3 -16 12 -12 36 2 17 8 31 12 31 5 0 6 9 3 20 -3
11 -9 20 -14 20 -5 0 -9 7 -9 15 0 8 -6 12 -14 9 -11 -4 -13 0 -9 16 4 16 8
18 14 9 19 -32 21 9 4 133 -9 75 -22 137 -29 143 -7 6 -15 15 -17 20 -3 7 -57
3 -154 -11z m-582 -871 c23 -5 27 -10 29 -42 l1 -36 4 33 c2 17 9 32 14 32 5
0 7 -11 3 -24 -4 -16 -1 -25 10 -29 10 -4 13 -13 9 -23 -6 -16 -7 -16 -14 2
-15 41 -23 -18 -11 -88 7 -38 12 -84 12 -103 0 -35 33 -71 53 -58 5 3 -2 12
-17 20 -14 7 -26 18 -26 23 0 15 11 12 32 -7 17 -15 18 -15 18 3 0 11 8 3 20
-21 23 -44 24 -48 11 -41 -16 10 -41 -5 -41 -24 0 -21 -18 -36 -28 -25 -4 4
-1 10 6 12 6 3 12 13 12 22 0 13 -7 18 -27 17 -22 -1 -28 4 -29 19 -1 30 -14
55 -31 55 -10 0 -12 -6 -8 -19 3 -10 7 -32 9 -49 4 -25 1 -29 -14 -25 -12 3
-16 11 -13 24 3 10 0 19 -6 19 -6 0 -11 5 -11 11 0 5 4 8 9 5 5 -3 12 9 15 28
5 27 10 33 26 29 17 -4 19 1 18 46 0 28 -5 55 -13 61 -7 6 -11 21 -8 33 4 17
3 19 -6 7 -16 -23 -22 -7 -7 22 19 37 10 78 -18 78 -12 0 -31 7 -42 16 -18 15
-18 15 6 9 14 -4 37 -9 53 -12z"/>
<path d="M4605 3928 c-192 -28 -351 -51 -353 -53 -2 -1 6 -67 18 -146 11 -79
29 -211 40 -294 11 -82 25 -175 30 -205 5 -30 12 -77 15 -105 5 -47 40 -297
66 -480 6 -44 14 -91 18 -104 6 -22 8 -22 23 -8 14 14 17 14 22 2 6 -16 -27
-39 -39 -27 -9 9 5 -88 16 -110 5 -10 9 -30 9 -45 -1 -15 1 -44 3 -63 2 -19 8
-65 12 -102 4 -38 8 -68 9 -68 1 0 177 25 391 55 215 30 391 55 393 55 3 0 -4
65 -25 228 -9 67 -19 122 -22 122 -3 0 -67 -9 -141 -20 -74 -11 -147 -20 -162
-20 -32 0 -29 -7 -53 160 -33 240 -33 237 25 232 43 -4 46 -1 30 29 -8 13 -7
19 1 19 6 0 13 -9 16 -20 6 -23 8 -24 109 -9 l76 12 -5 36 c-3 20 -14 93 -23
164 -21 148 -1 136 -186 109 -65 -10 -118 -15 -119 -12 0 3 -11 77 -23 165
-13 88 -22 162 -20 163 1 2 65 12 141 23 76 10 143 21 149 23 7 3 3 56 -12
168 -13 89 -23 166 -24 171 0 11 -34 8 -405 -45z"/>
<path d="M1381 3764 c-293 -41 -447 -67 -452 -76 -5 -7 -6 -22 -3 -33 3 -13
-2 -24 -16 -33 -12 -7 -20 -8 -20 -2 0 5 5 10 10 10 6 0 10 14 10 31 l0 30
-57 -5 c-63 -6 -342 -43 -384 -52 -15 -3 -29 -14 -32 -24 -7 -29 3 -32 24 -7
l18 22 15 -37 c9 -21 16 -45 16 -55 -1 -17 -2 -16 -15 1 -14 19 -15 19 -15 -7
0 -19 5 -27 18 -27 43 -1 338 45 343 53 4 5 12 7 17 3 14 -9 1033 135 1027
144 -3 4 -1 27 3 51 12 65 6 79 -31 78 -18 -1 -232 -30 -476 -65z"/>
<path d="M3509 3809 c-72 -10 -172 -44 -226 -75 -62 -36 -146 -126 -177 -190
-49 -100 -47 -213 15 -644 37 -263 38 -272 49 -265 4 3 17 -11 29 -30 24 -42
19 -45 -15 -7 l-25 27 6 -45 c25 -171 56 -307 85 -367 75 -155 217 -243 394
-243 133 0 230 47 291 143 17 25 32 47 35 47 3 0 17 -24 33 -53 l27 -53 140
19 c133 19 140 21 140 43 0 12 -12 100 -26 196 -14 95 -28 193 -30 218 -3 25
-20 149 -38 275 -30 213 -33 230 -52 227 -117 -15 -508 -73 -511 -76 -4 -3 22
-192 32 -235 6 -21 10 -23 51 -18 24 2 44 3 44 1 0 -2 9 -70 21 -151 24 -169
21 -229 -11 -255 -55 -45 -110 -8 -129 85 -9 42 -66 425 -100 677 -5 30 -9 42
-10 27 0 -18 -6 -27 -13 -24 -9 2 -12 21 -10 59 2 33 -1 59 -7 63 -8 4 -6 11
5 22 9 10 13 24 10 37 -3 12 -9 68 -12 126 -4 58 -11 111 -17 118 -5 7 -7 16
-3 19 4 4 10 2 15 -5 5 -9 12 -8 27 6 10 9 31 18 46 18 23 2 31 -5 48 -40 11
-23 20 -50 20 -59 0 -28 16 -27 34 4 19 32 41 34 41 3 0 -12 -12 -25 -32 -34
-32 -15 -32 -16 -26 -65 3 -27 9 -52 12 -55 3 -3 7 -34 9 -70 3 -66 7 -79 19
-67 3 4 1 28 -5 55 -10 42 -9 49 8 67 20 19 20 19 35 0 8 -11 14 -33 14 -50 0
-29 0 -29 -15 -10 -13 18 -14 17 -8 -15 4 -19 8 -36 9 -38 3 -4 224 26 248 34
10 3 14 11 11 17 -5 8 -2 8 7 0 15 -15 49 -17 49 -4 0 5 9 7 19 4 13 -3 21 1
24 14 4 16 5 16 6 1 1 -11 9 -18 22 -18 19 0 21 4 15 31 -3 17 -6 40 -6 51 0
16 -5 19 -25 16 -27 -6 -30 -1 -15 22 9 13 11 13 20 0 28 -44 -7 128 -50 242
-69 185 -303 287 -571 247z"/>
<path d="M2340 3605 c-143 -16 -491 -64 -506 -70 -8 -2 -9 -19 -3 -57 10 -58
92 -642 164 -1163 56 -405 55 -401 66 -383 7 10 9 9 9 -4 0 -9 3 -25 6 -35 6
-16 5 -16 -10 2 l-18 20 8 -20 c4 -11 8 -30 9 -42 1 -13 5 -26 8 -30 4 -3 7
-15 7 -25 0 -16 5 -19 28 -14 15 3 50 8 77 11 94 12 104 15 98 33 -5 14 -3 15
8 5 19 -18 76 -16 83 2 3 8 11 15 17 15 8 0 9 -4 0 -13 -9 -11 1 -12 57 -5 37
5 69 12 72 14 2 3 -6 76 -18 162 -71 502 -82 585 -82 608 0 26 1 26 52 22 36
-4 57 -12 68 -26 22 -27 42 -130 85 -447 19 -143 37 -269 40 -281 l4 -20 208
28 c114 16 208 30 210 31 5 5 -87 631 -101 683 -26 100 -95 162 -206 185 l-54
11 59 27 c116 53 143 111 132 285 -17 257 -94 417 -229 476 -66 29 -184 34
-348 15z m60 -280 c-8 -10 -2 -18 25 -34 24 -14 37 -30 41 -51 6 -28 24 -43
24 -20 0 6 5 10 10 10 15 0 12 -19 -6 -37 -9 -9 -13 -25 -10 -37 3 -12 9 -55
12 -97 7 -78 -9 -135 -38 -137 -7 0 -30 -4 -50 -8 l-38 -7 0 36 c0 20 -7 42
-15 51 -16 16 -20 46 -7 46 8 0 6 20 -17 175 -6 39 -11 76 -11 84 0 11 -3 11
-15 1 -12 -10 -15 -10 -15 3 0 17 67 29 74 12 2 -5 5 -2 5 7 1 17 20 29 34 21
4 -3 3 -11 -3 -18z"/>
<path d="M1495 3490 c-66 -10 -160 -24 -210 -30 -49 -7 -91 -13 -93 -15 -1 -1
4 -49 12 -106 14 -95 72 -507 147 -1044 33 -241 36 -316 13 -339 -19 -20 -68
-21 -83 -3 -20 25 -40 148 -132 807 -50 360 -94 658 -97 661 -8 6 -437 -53
-446 -61 -3 -3 4 -64 15 -135 11 -72 22 -150 25 -175 20 -164 119 -860 140
-979 30 -169 57 -235 126 -304 84 -84 210 -127 370 -127 54 0 100 4 103 10 3
6 1 10 -5 10 -6 0 -8 5 -5 10 4 6 2 17 -5 25 -8 10 -6 18 10 33 18 17 19 20 6
25 -9 4 -16 16 -16 29 l0 22 20 -22 c24 -25 27 -62 5 -62 -21 0 -19 -13 6 -28
12 -8 18 -19 15 -28 -7 -19 44 -11 132 22 97 36 170 93 222 174 58 90 69 156
57 317 -6 74 -175 1299 -182 1321 -5 14 3 15 -150 -8z m100 -770 c3 -5 1 -10
-4 -10 -6 0 -11 -7 -11 -15 0 -8 5 -15 10 -15 6 0 10 -8 10 -19 0 -10 7 -24
15 -31 9 -7 14 -19 11 -27 -3 -7 -1 -13 4 -13 6 0 10 -5 10 -11 0 -5 -4 -7
-10 -4 -6 4 -10 -6 -10 -22 -1 -24 -2 -25 -11 -10 -6 9 -9 30 -8 45 2 34 -10
72 -24 72 -6 0 -7 -21 -2 -62 5 -35 9 -79 10 -98 4 -60 5 -65 13 -76 10 -15
57 -30 48 -15 -4 6 -3 19 3 28 8 16 10 14 16 -10 4 -15 11 -27 16 -27 5 0 9
-4 9 -10 0 -5 -7 -7 -15 -4 -8 4 -22 1 -30 -6 -8 -7 -15 -8 -15 -3 0 5 -7 10
-15 10 -8 0 -15 -5 -15 -10 0 -5 -7 -4 -15 3 -9 7 -13 21 -10 31 7 19 -15 49
-34 49 -13 0 -3 -52 12 -61 5 -4 5 -9 -2 -13 -6 -4 -9 -11 -6 -16 3 -4 -3 -7
-12 -5 -10 1 -17 8 -15 14 1 7 -3 21 -9 33 -8 15 -8 18 0 14 6 -4 11 -1 11 8
0 8 3 23 6 33 5 16 4 16 -10 -1 -14 -17 -16 -18 -16 -3 0 9 -6 15 -12 13 -7
-1 -10 -1 -5 1 12 7 8 41 -6 50 -10 6 -9 12 5 26 17 16 18 16 18 -17 0 -19 5
-38 10 -41 6 -3 10 2 10 11 0 16 1 16 15 -2 11 -15 15 -16 15 -4 1 10 4 9 11
-5 6 -14 7 -2 3 35 -3 30 -14 64 -23 75 -21 25 -16 67 7 63 13 -2 18 6 20 30
3 32 15 41 27 22z"/>
</g>
</svg>
