<?xml version="1.0" encoding="iso-8859-1"?>
<!-- Generator: Adobe Illustrator 19.0.0, SVG Export Plug-In . SVG Version: 6.00 Build 0)  -->
<svg version="1.1" id="Capa_1" xmlns="http://www.w3.org/2000/svg" xmlns:xlink="http://www.w3.org/1999/xlink" x="0px" y="0px"
	 viewBox="0 0 512 512" style="enable-background:new 0 0 512 512;" xml:space="preserve">
<path style="fill:#64B5F6;" d="M400,192H112c-8.832,0-16,7.168-16,16v224c0,8.832,7.168,16,16,16h288c8.832,0,16-7.168,16-16V208
	C416,199.168,408.832,192,400,192z"/>
<g>
	<path style="fill:#2196F3;" d="M416,416H96c-8.832,0-16,7.168-16,16v16c0,35.296,28.704,64,64,64h224c35.296,0,64-28.704,64-64v-16
		C432,423.168,424.832,416,416,416z"/>
	<path style="fill:#2196F3;" d="M317.248,100.512C309.44,98.848,304,92.384,304,84.8V80c0-8.832-7.168-16-16-16h-64
		c-8.832,0-16,7.168-16,16v4.8c0,7.584-5.44,14.048-13.088,15.68C126.176,114.304,80,157.504,80,208c0,8.832,7.168,16,16,16h320
		c8.832,0,16-7.168,16-16C432,157.504,385.824,114.304,317.248,100.512z"/>
</g>
<path style="fill:#455A64;" d="M304,0h-96c-8.832,0-16,7.168-16,16v48c0,8.832,7.168,16,16,16h96c8.832,0,16-7.168,16-16V16
	C320,7.168,312.832,0,304,0z"/>
<g>
</g>
<g>
</g>
<g>
</g>
<g>
</g>
<g>
</g>
<g>
</g>
<g>
</g>
<g>
</g>
<g>
</g>
<g>
</g>
<g>
</g>
<g>
</g>
<g>
</g>
<g>
</g>
<g>
</g>
</svg>
